<?xml version="1.0" encoding="UTF-8"?>
<svg viewBox="0 0 1226 816" xmlns="http://www.w3.org/2000/svg">
 <g fill-rule="evenodd" stroke-width=".5">
  <path d="m0 408v-408h1226v816h-540l0.2-0.5 0.3-0.5v-1q0-1-0.7-5-0.8-4 0.2-4.2 1-0.3-5.5-22.6l-6.5-22.2-0.2-3-0.3-3-0.5-3.5q-0.5-3.5-2.5-15.5t-6-21-12-18.5-9-22 0-15.5 0.7-5l-0.2-2-0.2-0.5q-0.3-0.5-0.6-0.5h-0.2l-0.2-1q-0.3-1-1-13l-0.8-12-0.2-0.5q-0.3-0.5-0.6-0.5h-0.2l-0.2-3q-0.3-3-2.3-10t-2.3-20.5l-0.2-13.5 0.2-1q0.3-1 3-15.5l2.8-14.5 0.2-1 0.3-1 0.5-2.5q0.5-2.5 3.5-16t8-31 12-29.5 11-25.5 10.5-27 16.2-17.5l9.8-4 6.5 0.2q6.5 0.3 21.5 3.3t25 2.5 24-4 19.5-5.5 7-2.5l1.5-0.5 1.5-0.5 1.5-0.5 1-0.5 1-0.5 1-0.3 1-0.2 5-2.2q5-2.3 5-2.6v-0.2h1.2q0.3 0 0.6-0.5l0.2-0.5h1l1-0.2 1-0.3 1-0.5 1-0.5 22.8-10.7q22.7-10.8 31.2-18.3t12-12.5 3.8-12.5q0.2-7.5-2-9-2.3-1.5-3.8-7.5t-2-5.5-1-6.5-1-9l-0.5-2h-0.5l-0.2-3-0.3-3-0.5-1.5q-0.5-1.5-2-7.5t-12-27.5-25.8-44.3q-15.2-22.7-25.7-41l-10.5-18.2-0.2-0.5q-0.3-0.5-0.6-0.5h-0.2l-0.2-1-0.3-1-0.5-1-0.5-1-0.3-0.2-0.2-0.3-0.2-0.3-0.3-0.2-0.3-0.2-0.2-0.3-0.2-0.3q-0.3-0.2-6.3-4.7t-13.7-10.3q-7.8-5.7-22.3-13.7t-25.3-14.7q-10.7-6.8-15-9-4.2-2.3-10.7-0.8t-8 4-2.5 2-3.2 1.8l-2.3 2.2-0.7 2q-0.8 2 1 1.5 1.7-0.5 1.7 2t-0.5 3.5-1.2 3.2q-0.8 2.3-1.8 4-1 1.8-3.2 2.8-2.3 1-3 9.8-0.8 8.7-0.3 10 0.5 1.2-2.5 2-3 0.7 0.2 4 3.3 3.2 4 6.4 0.8 3.3 5.8 3.3t10.5 2.5 9.5 5 6 2.8q2 0.2 2 1.2t14.5 1 14.5-2 2-1.5 2 2 1 1.7q1 0.3 2 0.6l1 0.2v0.5l0.2 0.3 0.3 0.2 0.3 0.2 0.2 0.3 1 0.5 1 0.5 0.2 0.3 0.3 0.2 0.3 0.2 0.2 0.3 2.8 3.7q2.7 3.8 10.2 26.8t9 48 2 27 0.8 10l0.2 8-1 0.2-1 0.3-3.5 0.5q-3.5 0.5-5.5 1t-6-0.5l-4-1-1-0.5-1-0.5-1.5-0.3-1.5-0.2v-0.2q0-0.3-1-0.8t-14-1-18.5 0.5-13.5 6-12.5 6.7l-4.5 1.8-2-0.2q-2-0.3-20.5-3.8t-33-4-30 3-27 9.2l-11.5 5.8-0.2-0.5q-0.3-0.5-0.6-0.5h-0.2l-1-0.2q-1-0.3-21.5-11.3t-25.5-15.7l-5-4.8-0.2-4q-0.3-4-0.6-4.5l-0.2-0.5 0.2-3q0.3-3 1.8-6t3.2-15.5l1.8-12.5h0.5l0.5-5.5q0.5-5.5 1-7.5t3.8-2.5q3.2-0.5 3.4-7.5 0.3-7-1-6.8-1.2 0.3-1-0.4 0.3-0.8 1.6-2 1.2-1.3 3-9 1.7-7.8 1-8.3l-0.8-0.5-0.2-0.5q-0.3-0.5-0.6-0.5h-0.2l0.2-3q0.3-3 1.3-2t1.5-6.5-0.2-16q-0.8-8.5 0.2-8.5t0.2-9.5q-0.7-9.5-4-16-3.2-6.5-4.2-6.5t-1-1-1-1-1-1.5-6.5-6.3q-6.5-4.7-8.5-7.7t-7-5.5-5.2-3.2q-0.3-0.8-5-1-4.8-0.3-4.3-1.6 0.5-1.2-3.5-1.2t-4 1-2.5 0.8q-2.5-0.3-1-0.8t0-1-12 0.2q-10.5 0.8-10.5-0.2t-7.5 0-7.7 0q-0.3-1-0.6 0-0.2 1-2.4 1-2.3 0-3.3 4t-3.3 4.8q-2.2 0.7-4.2 1.4l-2 0.8-1 0.2q-1 0.3-3 1.3t-4 1.7q-2 0.8-3.5 3.8t-2.5 3-1.5 2.5-2.5 2.5-2-1.5-1-1.3q-1 0.3-3.5 3-2.5 2.8-3.5 3-1 0.3-2.5 2.6-1.5 2.2-2.7 2.7-1.3 0.5-1.8 10.5t0.8 10.5q1.2 0.5 1.2 3.5t1 3 1 1-1 1.2q-1 0.3 0.5 0.6 1.5 0.2 1.7 3.7l0.3 3.5-0.3 2-0.2 2h-1q-1 0-0.5-2t-0.5-1.8l-1 0.3-0.2 0.3-0.3 0.2-0.5 1-0.5 1-0.3 0.2-0.2 0.3 0.2 0.3 0.3 0.2 0.7 3q0.8 3-0.2 3t-1 1.5 1.2 2q1.3 0.5 1.6 2.7 0.2 2.3 1.2 2.6 1 0.2 1 4.7t-1.8 5.5q-1.7 1-2 2-0.2 1 2 2 2.3 1 3 3.5 0.8 2.5 2.6 3 1.7 0.5 1.7 6.5t0.5 7.5l0.5 1.5 0.5 1 0.5 1 0.5 1 0.5 1 0.3 1 0.2 1 1-0.2 1-0.3-0.2-0.3-0.3-0.2-0.5-1-0.5-1-0.5-1.5q-0.5-1.5 0-4.5l0.5-3 0.3-0.2 0.2-0.3 1-0.5 1-0.5 0.2-0.3 0.3-0.2 0.5 1 0.5 1 0.3 0.5 0.2 0.5 3.2 32q3.3 32 3.8 35l0.5 3h0.5l1.2 6q1.3 6 1.8 9l0.5 3 0.3 2.5 0.2 2.5h-0.5l-0.5 1-0.5 1-0.5-3.5q-0.5-3.5-1-5l-0.5-1.5-0.3-1-0.2-1-1.5 0.2-1.5 0.3-0.2 0.3-0.3 0.2-0.3 0.2-0.2 0.3-0.2 0.3-0.3 0.2-0.3 0.2-0.2 0.3-0.2 0.3-0.3 0.2-0.5 1q-0.5 1-2 4.5t-6.2 7.3q-4.8 3.7-13.8 8.2t-13.5 5.5-5.3 0.3q-0.7-0.8-10-6.6-9.2-5.7-24.2-9.7t-26-4.5-35.5 4l-24.5 4.5-0.2-0.3-0.3-0.2-0.3-0.2-0.2-0.3-0.2-0.3-0.3-0.2h-0.5v-0.2q0-0.3-4.5-3.8t-11.5-7-17-5.5-17.5-1.3l-7.5 0.8-2 0.2q-2 0.3-5 1.3t-8 1.5-8-0.5l-3-1-1.5-0.3-1.5-0.2-0.2-1q-0.3-1-0.6-2.5l-0.2-1.5 0.2-1 0.3-1 0.5-1q0.5-1 4-19t5.5-33.5 9-36.5 14.3-32.2q7.2-11.3 9.7-15l2.5-3.8-1-0.2q-1-0.3-1.2-1.6-0.3-1.2-2-1.7l-1.8-0.5v-2l1 0.2 1 0.3 3.5 0.3q3.5 0.2 3-1-0.5-1.3 2.5-1.8t3.8-1.2q0.7-0.8 1-1.6 0.2-0.7 1.2 0.3t10-2 19-5 13.8-4.3q3.7-2.2 4-4 0.2-1.7 2-2 1.7-0.2 1.4-1.2-0.2-1 1.3-1t3.3-2q1.7-2 2.2-1l0.5 1 0.5-1.5q0.5-1.5 0.8-2.5 0.2-1-1.8-1.2-2-0.3-0.2-2 1.7-1.8 0.4-5.6-1.2-3.7-4-7.4-2.7-3.8-5.4-6.3-2.8-2.5-3.3-5.5t-3.7-5.5q-3.3-2.5-2-3.3 1.2-0.7 0-1.4-1.3-0.8-0.6-1.6l0.8-0.7-0.2-0.3-0.3-0.2-0.3-0.2-0.2-0.3h-3q-3 0-3.8 0.7l-0.7 0.8-0.5 1-0.5 1-0.3-2.8q-0.2-2.7 0.8-3.2l1-0.5h-2q-2 0-3.5 0t-4-1.5-7-2-7.3 1.2q-2.7 1.8-7.4 3-4.8 1.3-12.3 4.8t-11.3 5.8q-3.7 2.2-5.7 11.2t-6.7 18.5l-4.8 9.5-5.8 4.5q-5.7 4.5-19.4 26.3-13.8 21.7-35 51.4-21.3 29.8-27.3 39.8t-11 20.5-8 18-3.3 8.5l-0.2 1v2h-0.5l-0.3 0.2-0.2 0.3-0.2 0.3-0.3 0.2-0.3 0.2-0.2 0.3-0.2 0.3-0.3 0.2-0.5 1-0.5 1-2.5 7.5q-2.5 7.5-5.5 11t-3 11 6.5 17.5 15.2 17.8q8.8 7.7 34.3 21.2t30 15.5 5 2.3l0.5 0.2h0.5l0.3 0.2 0.2 0.3 1.5 0.5 1.5 0.5 1 0.5 1 0.5 21 7.5q21 7.5 29 9t27 1 31-0.5 13 0.3l1 0.2 3.2 2q3.3 2 9.8 15.5t13 29 9 19 3 4.5l0.5 1 0.5 1 0.5 1h0.5l0.2 1 0.3 1 6 15q6 15 11 30.5t5.5 16.5l0.5 1 0.5 1 0.5 1 0.5 1 0.5 1h0.5l9.5 20.2q9.5 20.3 12.3 25.6 2.7 5.2 4.2 12.2t0.5 13-3.5 15.5-1.5 15.5 1.3 6h0.2l1.2 4q1.3 4 1.3 14t0.3 10.5l0.2 0.5h-0.2q-0.3 0-0.6 0.5l-0.2 0.5-1.8 3.5q-1.7 3.5-10.7 18t-14.5 33-7.2 27.5q-1.8 9-0.8 9t0 6-2.2 7q-1.3 1-0.8 2t-2 6.5-2.8 11.5q-0.2 6 0.8 6t0.8 1q-0.3 1-0.6 2.5l-0.2 1.5h-339v-408zm291.2-307.2q-0.2-0.3 0-0.6 0.3-0.2 0.3 0.3t-0.3 0.3zm121 71q-0.2-0.3 0-0.6 0.3-0.2 0.3 0.3t-0.3 0.3z" fill="#fff" stroke="#fff"/>
  <path d="m455.2 310.8l0.3 0.2 0.5 1 0.5 1 0.3 0.2 0.2 0.3 0.2 0.3 0.3 0.2 0.3 0.2 0.2 0.3 0.2 0.3 0.3 0.2 0.5-2.5q0.5-2.5 0.2-4.5l-0.2-2 1.5 0.2 1.5 0.3 0.2 0.3 0.3 0.2 0.3 0.2 0.2 0.3 0.2 0.3 0.3 0.2 0.3 0.2 0.2 0.3 0.2 0.3 0.3 0.2 1 1q1 1 1.3 0.8l0.2-0.3 0.2-0.3 0.3-0.2 0.3 3q0.2 3 2.7 4t5.7 9.5q3.3 8.5 3.8 9.5l0.5 1 0.5 1 0.5 1 0.3 0.2 0.2 0.3 0.2 0.3 0.3 0.2 0.5 1 0.5 1 0.3 0.2 0.2 0.3 0.2 0.3 0.3 0.2 0.5-4q0.5-4 0.5-6.5v-2.5l0.3-0.2 0.2-0.3 0.2-0.3 0.3-0.2 0.3-0.2 0.2-0.3 0.2-0.3 0.3-0.2 0.5 1 0.5 1 1.3 0.8q1.2 0.7 2.7 1 1.5 0.2 1.7 1.2l0.3 1 0.3 0.2 0.2 0.3 0.2 0.3 0.3 0.2 0.3-0.2 0.2-0.3 0.2-0.3 0.3-0.2 0.3-0.2q0.2-0.3 2.2-4l2-3.8 1.5-0.5q1.5-0.5 0.3 5.5-1.3 6-2 11-0.8 5-1.8 5t-1 1v1l6.2-0.5q6.3-0.5 8.3-0.5t2.3 1q0.2 1 3.2 2t4 3.2q1 2.3 2 2.6 1 0.2 1 1.2t1 1 2.5 1.8q1.5 1.7 3.3 3 1.7 1.2 3.2 4.2t2.8 3.5q1.2 0.5 3.2 2.7 2 2.3 3 2.3h1l0.2-0.3 0.3-0.2 0.7-0.2q0.8-0.3 2 0.4 1.3 0.8 1-0.4-0.2-1.3 1.8-2 2-0.8 3.5-4.6 1.5-3.7 2.5-4 1-0.2 1.2-1.7l0.3-1.5 0.3-0.2 0.2-0.3 1-0.5 1-0.5 0.2-0.3 0.3-0.2 0.3-0.2 0.2-0.3 0.2-0.3 0.3-0.2 0.3-0.2 0.2-0.3 1.5-0.3 1.5-0.2v2l-1 0.2-1 0.3-1 0.5-1 0.5 0.2 0.3 0.3 0.2v6.5q0 6.5-0.3 7.5-0.2 1 4 3.5 4.3 2.5 4.6 2.7l0.2 0.3h3.5q3.5 0 5.5-0.7 2-0.8 3-3 1-2.3 2-2.6l1-0.2 0.2-1.5 0.3-1.5 0.3-0.2 0.2-0.3 0.2-0.3 0.3-0.2 0.3-0.2 0.2-0.3 1-0.3 1-0.2-0.2 1.5-0.3 1.5-0.3 1.5-0.2 1.5-1 0.2-1 0.3-0.2 0.3-0.3 0.2-0.3 3q-0.2 3-2 4-1.7 1-2 2-0.2 1-2 1-1.7 0-2 1-0.2 1-2.7 0.2-2.5-0.7-4-0.4-1.5 0.2-2 1.4-0.5 1.3-2.3 2-1.7 0.8-1.4 3 0.2 2.3-0.8 2.6-1 0.2 0.2 4.7 1.3 4.5-1.4 6.7-2.8 2.3-6.8 3.6-4 1.2-4.8 4.7-0.7 3.5-2.2 15t-2 13l-0.5 1.5-0.3 0.2-0.2 0.3 0.2 0.3 0.3 0.2v6h-0.5l-0.2-1.5-0.3-1.5-0.3-0.2-0.2-0.3-1.5-0.3q-1.5-0.2-2.3-3.2l-0.7-3-0.3 0.2-0.2 0.3-1 0.5-1 0.5-1 0.5-1 0.5 0.5 0.5q0.5 0.5-0.3 1.2-0.7 0.8-1.7 3.3t-1.3 2.7l-0.2 0.3-1.5 0.5-1.5 0.5-0.2 0.3-0.3 0.2-0.3-0.2-0.2-0.3-1-0.5q-1-0.5-1.8-2.2-0.7-1.8-7.4-4.6-6.8-2.7-8.3-5.4-1.5-2.8-6.5 1-5 3.7-8.5 3.7t-5.5 16.5l-2 16.5-0.2 0.3-0.3 0.2-0.3 0.2-0.2 0.3-0.2 0.3-0.3 0.2-0.3 0.2-0.2 0.3-1 0.3q-1 0.2-1 1.7v1.5l-1-0.2q-1-0.3-2-1.8t-6.5-3-8 1.2q-2.5 2.8-4.5 3-2 0.3-6 2.8t-4.8 3.2q-0.7 0.8-3 2.3-2.2 1.5-3.7 3.7-1.5 2.3-2.3 5l-0.7 2.8 0.3 0.2 0.2 0.3 2.5 2.3q2.5 2.2 2.5 3.2t4.8 3q4.7 2 6.7 2t4.3 5.2q2.2 5.3 1.7 5.8t0.5 0.8q1 0.2 3 3.4 2 3.3 3.8 4 1.7 0.8 2 1l0.2 0.3 1 0.5 1 0.5 2 0.5 2 0.5v1l-2.5 0.5-2.5 0.5h-1l-0.2-0.3-0.3-0.2-0.3 0.2-0.2 0.3h-4q-3 0-8 0t-6-1.5-1.8-2.8q-0.7-1.2-1-6.7-0.2-5.5-1.7-6.3-1.5-0.7-11.5-5.7t-14-4.5-8.5-2-5-3.8q-0.5-1.2-2-1.2t-1.5-1-9-1-9.2-1q-0.3-1-4.6-1-4.2 0-4.2-1t-1-1-1-1-1.5-1.2q-1.5-0.3-3.3-1.6-1.7-1.2-2.2-5.2t2-8.5 2.5-7-1.7-1.7q-1.8 0.7-2-0.6l-0.3-1.2 0.3-0.2 0.2-0.3h1q1 0 2 0t0.5-1.3q-0.5-1.2 0.5-1.2t0.2-2.5q-0.7-2.5-1.4-2l-0.8 0.5-0.2-2.5q-0.3-2.5-0.8-6t-2.8-9q-2.2-5.5-3.2-5.5t-2.8-3.5q-1.7-3.5-7.2-13t-9.8-19.5l-4.2-10-0.2-0.5q-0.3-0.5-0.6-0.5h-0.2l-0.2-1-0.3-1-0.5-1-0.5-1-0.5-1-0.5-1-0.3-0.2q-0.2-0.3-0.4-0.6-0.3-0.2-4.8-12.7t-10-22.5-9.2-15.5l-3.8-5.5h1q1 0 1.8-2l0.7-2-0.3-0.2-0.2-0.3-0.2-0.3-0.3-0.2-0.3-1-0.2-1v-2.8q0-2.7 6.5-4.7t17.5-1 18.2 2.7q7.3 1.8 15.6 7 8.2 5.3 19.2 5.3t19-2 16-2.5 10-0.8l2-0.2 0.2-1q0.3-1-1.2-3.5t-0.8-3.3q0.8-0.7 1-3.4 0.3-2.8 1.6-3.3 1.2-0.5 1.2-3.5v-3h0.5l0.3-0.2 0.2-0.3 0.2-0.3 0.3-0.2 0.5 1 0.5 1 0.3 0.2 0.2 0.3 0.2 0.3 0.3 0.2 0.3-1.5q0.2-1.5 2-1.5 1.7 0 1.4 1-0.2 1 2.6 2.5 2.7 1.5 3.4 2.3 0.8 0.7 1 1z" fill="#ecb38b" stroke="#ecb38b"/>
  <path d="m459 570l-1-0.5h5l0.2-0.3 0.3-0.2h0.5v2l1 0.2 1 0.3 1.5 0.5 1.5 0.5 0.2 0.3 0.3 0.2 0.3 0.2 0.2 0.3 5.5 0.3q5.5 0.2 5.5 1.2t1.8 0.5q1.7-0.5 2 0.5 0.2 1 1.7 1t1.5 1 1.8 1.5q1.7 0.5 2 1.5 0.2 1 1.7 1t1.5 1 6 5 6 5 5 1.5 6-1.3q1-1.7 2-2.2l1-0.5 1-0.3 1-0.2-0.5 2.8q-0.5 2.7 2.5 4.2t6 1.5 10.5-1 14.7 1.3q7.3 2.2 13 5.7 5.8 3.5 6.6 6 0.7 2.5 1.2 4.5l0.5 2 0.5-1.5q0.5-1.5 1.2-2.3l0.8-0.7 0.2 0.3 0.3 0.2 0.5 2 0.5 2 0.3 0.5 0.2 0.5-1 7.2q-1 7.3-1.5 21.8t-0.7 17.2q-0.3 2.8-4.3 7.3t-4.3 4.7l-0.2 0.3-0.2 0.3-0.3 0.2-0.3 0.2-0.2 0.3-0.2 0.3-0.3 0.2-0.3 0.2-0.2 0.3-0.2 0.3-0.3 0.2-0.3 0.2-0.2 0.3-0.2 0.3-0.3 0.2-0.3 0.2-0.2 0.3-0.2 0.3-0.3 0.2-0.3 0.5-0.2 0.5-2.5 0.2q-2.5 0.3-6.5 0.8l-4 0.5v0.5h-10.2q-0.3 0-8 0.8-7.8 0.7-19.8 0l-12-0.8-2-0.2q-2-0.3-12-1.6l-10-1.2-0.5-0.2q-0.5-0.3-10.5-2l-10-1.8v-0.2q0-0.3-11.5-3.3l-11.5-3-2-0.5-2-0.5-1.5-0.3-1.5-0.2v-1l3-0.2 3-0.3 0.2-0.3q0.3-0.2 2-1 1.8-0.7 4-2.4 2.3-1.8 2.8-7.8t0.5-9.5-2.5-7.5-3.5-9.5-2-11-3.7-9.3q-2.8-3.7-7-11.4l-4.3-7.8v-5l-0.3-1-0.2-1 6-0.2q6-0.3 7.5-2 1.5-1.8 11.5-4.6 10-2.7 9-3.2t0-1 4-1l3-0.5-1-0.5z" fill="#db9567" stroke="#db9567"/>
  <path d="m712 290.8l2 0.2v0.2q0 0.3 1 0.6 1 0.2 0.2 2.7-0.7 2.5-5.4 7.3-4.8 4.7-8.8 6.7t-5 3.7q-1 1.8-3 0.6-2-1.3-2.5 1.4-0.5 2.8 0.5 3 1 0.3-0.5 0.6-1.5 0.2-1.5 3.7t-1.8 4.5l-1.7 1-0.3 0.2-0.2 0.3-0.2 0.3-0.3 0.2-0.3 0.2-0.2 0.3-0.2 0.3-0.3 0.2-0.3 0.2-0.2 0.3-1 0.5-1 0.5v0.5l-1 0.2q-1 0.3-5.8 4.6l-4.7 4.2-0.3 0.2-0.2 0.3-1 0.3-1 0.2v-0.5l0.2-0.3 0.3-0.2 0.3-0.2 0.2-0.3 0.2-0.3 0.3-0.2 0.5-1 0.5-1 0.5-0.5q0.5-0.5 1-1.5l0.5-1 0.3-0.2 0.2-0.3 0.2-0.3 0.3-0.2 0.3-0.2 0.2-0.3 0.2-0.3 0.3-0.2 0.3-0.2 0.2-0.3h-3l-0.2 0.3-0.3 0.2-0.3 0.2-0.2 0.3-0.2 0.3-0.3 0.2-0.3 0.2-0.2 0.3-0.2 0.3-0.3 0.2-0.3 0.2-0.2 0.3-0.2 0.3-0.3 0.2-0.3 0.2-0.2 0.3-0.2 0.3-0.3 0.2-0.3 0.2-0.2 0.3-0.2 0.3q-0.3 0.2-4 3.4-3.8 3.3-14.3 15.6-10.5 12.2-11.5 12-1-0.3-3.5 1.2t-5 2.5-7.3 0.7q-4.7-0.2-9.4-1-4.8-0.7-10.8-1.7t-8 0.3l-2 1.2-1 0.2-1 0.3-0.2 0.3-0.3 0.2-0.3 0.2-0.2 0.3-0.2 0.3-0.3 0.2-0.3 1.5-0.2 1.5-1 0.2q-1 0.3-2 2.6-1 2.2-3 3-2 0.7-5.5 0.7h-3.5l-0.2-0.3q-0.3-0.2-4.6-2.7-4.2-2.5-4-3.5 0.3-1 0.3-7.5v-6.5l-0.3-0.2-0.2-0.3 0.2-0.3q0.3-0.2 0.6-0.7l0.2-0.5 1-0.2q1-0.3 1-0.6v-0.2h0.2q0.3 0 0.6-0.5l0.2-0.5 1-1.8q1-1.7 3-2 2-0.2 2.5-1 0.5-0.7 1.3-1 0.7-0.2 1-2.2 0.2-2 1.4-1.5 1.3 0.5 5.8-5t3.8-6.7q-0.8-1.3 1.4-1.6 2.3-0.2 9-7 6.8-6.7 7-7l0.3-0.2 0.3-0.2 0.2-0.3 0.2-0.3 0.3-0.2 0.5-1 0.5-1 0.5-1.5 0.5-1.5v-2l-0.3-0.2-0.2-0.3-0.2-0.3-0.3-0.2-0.3-0.2-0.2-0.3-0.2-0.3-0.3-0.2-0.3 0.2-0.2 0.3-0.2 0.3-0.3 0.2-0.3 0.2-0.2 0.3-1 0.5-1 0.5-1 0.5q-1 0.5-6.5 2.5l-5.5 2h-3l-2.5-0.3-2.5-0.2 0.2-1.5 0.3-1.5 0.3-0.2 0.2-0.3 0.2-0.3 0.3-0.2 0.3-0.2 0.2-0.3 0.2-0.3 0.3-0.2 0.3-0.2 0.2-0.3 0.2-0.3 0.3-0.2 0.3-0.2 0.2-0.3 0.2-0.3q0.3-0.2 3.6-4.7 3.2-4.5 2.2-4.5t-1-1v-1l4.5-1.8q4.5-1.7 15-6.2t23-7 27-2 33 4 20.5 3.8z" fill="#eeb285" stroke="#eeb285"/>
  <path d="m364.2 520.5l-0.2-1.5h2l0.2 1.5 0.3 1.5 0.3 0.2 0.2 0.3 0.2 0.3 0.3 0.2 0.3 0.2 0.2 0.3 8 3.5q8 3.5 12.8 4.8 4.7 1.2 8 8 3.2 6.7 4.2 7 1 0.2 2.5 2 1.5 1.7 6.3 5 4.7 3.2 5 4.2 0.2 1 6.2 5.2 6 4.3 18.2 3.6 12.3-0.8 13.6-0.6 1.2 0.3 3.2 0.3h5l1.5 0.3 1.5 0.2v0.5l0.2 0.3 0.3 0.2 0.3 0.2 0.2 0.3-0.5 0.3-0.5 0.2h-0.5l-0.3 0.2-0.2 0.3h-5l1 0.5 1 0.5-3 0.5q-3 0.5-4 1t0 1-9 3.2q-10 2.8-11.5 4.6-1.5 1.7-7.5 2l-6 0.2 0.2 1 0.3 1v5l4.3 7.8q4.2 7.7 7 11.4 2.7 3.8 3.7 9.3t2 11 3.5 9.5 2.5 7.5-0.5 9.5-2.8 7.8q-2.2 1.7-4 2.4-1.7 0.8-2 1l-0.2 0.3-3 0.3-3 0.2-1.5-0.2q-1.5-0.3-12.5-3.8t-22-8.5-11.5-4.7l-0.5 0.2h-0.2q-0.3 0-1.3-6t1.5-15.5 3.5-15.5-0.5-13-4.2-12.2q-2.8-5.3-12.3-25.6l-9.5-20.2h0.5l0.5-1 0.5-1 0.3-0.2 0.2-0.3 0.2-0.3 0.3-0.2 0.3-0.2 0.2-0.3 0.2-0.3 0.3-0.2 0.3-0.2 0.2-0.3 0.2-0.3 0.3-0.2 0.3-0.2 0.2-0.3 1-0.5 1-0.5 0.2-0.3 0.3-0.2 0.3 0.2 0.2 0.3 0.2 0.3 0.3 0.2 0.5-1q0.5-1 0-7.5l-0.5-6.5-0.3-1.5z" fill="#dca37c" stroke="#dca37c"/>
  <path d="m375 471.5h-1l-0.2 0.3-0.3 0.2 0.3 1.2q0.2 1.3 2 0.6 1.7-0.8 1.7 1.7t-2.5 7-2 8.5 2.2 5.2q1.8 1.3 3.3 1.6 1.5 0.2 1.5 1.2t1 1 1 1 4.2 1q4.3 0 4.6 1 0.2 1 9.2 1t9 1 1.5 1 2 1.2q0.5 1.3 5 3.8t8.5 2 14 4.5 11.5 5.7q1.5 0.8 1.7 6.3 0.3 5.5 1 6.7 0.8 1.3 1.8 2.8t6 1.5 8 0h4l0.2-0.3 0.3-0.2 0.3 0.2 0.2 0.3h1l2.5-0.5 2.5-0.5v-0.5l4-0.2q4-0.3 5.5-0.6 1.5-0.2 1.5-1.2t1.8-2q1.7-1 2-1.2l0.2-0.3 0.2-0.3 0.3-0.2 0.3-0.2 0.2-0.3 0.2-0.3 0.3-0.2 0.3-0.2 0.2-0.3 0.2-0.3 0.3-0.2 0.3-0.2 0.2-0.3 2-0.3 2-0.2-0.2 1-0.3 1-0.3 0.2-0.2 0.3-0.2 0.3-0.3 0.2-0.5 1-0.5 1-0.5 1-0.5 1-0.3 0.2-0.2 0.3-2.8 2.7q-2.7 2.8-4.4 5.6-1.8 2.7-0.8 3.2t-0.2 1.2q-1.3 0.8-1.8 3.3t-3.2 6.7q-2.8 4.3-4.6 4.6-1.7 0.2-3.7 0.2t-2.3 1q-0.2 1-2.4 0.5-2.3-0.5-2.6-0.3l-0.2 0.3-3 0.3-3 0.2-1.5-0.2-1.5-0.3h-5q-2 0-3.2-0.3-1.3-0.2-13.6 0.6-12.2 0.7-18.2-3.6-6-4.2-6.2-5.2-0.3-1-5-4.2-4.8-3.3-6.3-5-1.5-1.8-2.5-2-1-0.3-4.2-7-3.3-6.8-8-8-4.8-1.3-12.8-4.8l-8-3.5-0.2-0.3-0.3-0.2-0.3-0.2-0.2-0.3-0.2-0.3-0.3-0.2-0.3-1.5-0.2-1.5h-2l0.2 1.5 0.3 1.5 0.5 6.5q0.5 6.5 0 7.5l-0.5 1-0.3-0.2-0.2-0.3-0.2-0.3-0.3-0.2-0.3 0.2-0.2 0.3-1 0.5-1 0.5-0.2 0.3-0.3 0.2-0.3 0.2-0.2 0.3-0.2 0.3-0.3 0.2-0.3 0.2-0.2 0.3-0.2 0.3-0.3 0.2-0.3 0.2-0.2 0.3-0.2 0.3-0.3 0.2-0.5 1-0.5 1h-1l-0.5-1-0.5-1-0.5-1-0.5-1-0.5-1q-0.5-1-5.5-16.5t-11-30.5l-6-15-0.3-1-0.2-1 0.2-2.5 0.3-2.5 0.3 0.2 0.2 0.3 4 0.3 4 0.2 0.2 1 0.3 1 2.5 3.5q2.5 3.5 5.8 9.3 3.2 5.7 5.7 6 2.5 0.2 2.7 1.2l0.3 1 0.3 1 0.2 1 1 0.2 1 0.3 0.2 0.3 0.3 0.2 0.3-2 0.2-2 1-0.2q1-0.3 1.5-1.6 0.5-1.2 1.5-1.2t1.5-7 1.5-7 1-3 2-2.2q2 0.7 4-2l2-2.8 0.8-0.5q0.7-0.5 1.4 2 0.8 2.5-0.2 2.5t-0.5 1.2q0.5 1.3-0.5 1.3t-2 0zm124.2 60.7q0.3-0.2 0.6 0 0.2 0.3-0.3 0.3t-0.3-0.3z" fill="#e5b088" stroke="#e5b088"/>
  <path d="m533 454.8l1-0.3 0.2-0.3q0.3-0.2 1.3-2.7t1.7-3.3q0.8-0.7 0.3-1.2l-0.5-0.5 1-0.5 1-0.5 1-0.5 1-0.5 0.2-0.3 0.3-0.2 0.3 2q0.2 2 1.7 2t1.7 1q0.3 1 0.6 1.2l0.2 0.3 0.2 0.3 0.3 0.2 0.3 1.5 0.2 1.5 0.5 3.5q0.5 3.5-0.3 4-0.7 0.5-0.4 2 0.2 1.5 1.4 2 1.3 0.5 1 1.5-0.2 1 3.8 3.2 4 2.3 4.5 3.6 0.5 1.2 1.5 1.2t0.5 5.2q-0.5 5.3-0.7 5.6l-0.3 0.2-0.3 0.2-0.2 0.3-0.2 0.3-0.3 0.2v2h0.5l-0.2 2.5q-0.3 2.5 0.7 7t0.5 8.5-2.8 7.8q-2.2 3.7-9 10.4-6.7 6.8-6.4 9 0.2 2.3-0.8 2.6-1 0.2-1.2 2.2-0.3 2-0.3 3.5v3.5l-0.3 0.2-0.2 0.3-1.5 0.5-1.5 0.5h-5l0.2-0.3 0.3-0.2 0.3-0.2 0.2-0.3-0.2-0.3-0.3-0.2-0.3-0.2-0.2-0.3-0.2-0.3-0.3-0.2-0.3-0.2-0.2-0.3-0.2-0.3-0.3-0.2-0.3-0.2q-0.2-0.3-1.4-5-1.3-4.8-1.8-7.3t-5.8-6.3l-5.2-3.7-0.2-0.3-0.3-0.2-0.3-0.2-0.2-0.3-1-0.5-1-0.5-0.2-0.3-0.3-0.2-0.5-1-0.5-1-0.3 0.2-0.2 0.3-0.2 0.3-0.3 0.2v2l0.3 0.2 0.2 0.3-0.5 5.3q-0.5 5.2-1.5 5-1-0.3-2.5-0.6l-1.5-0.2h-0.2q-0.3 0-0.6 0.5l-0.2 0.5v0.2q0 0.3-1.5 1-1.5 0.8-1.7-0.2l-0.3-1-0.3 0.2-0.2 0.3-0.2 0.3-0.3 0.2-0.3 0.2-0.2 0.3-0.2 0.3-0.3 0.2-0.3 0.2-0.2 0.3-0.2 0.3q-0.3 0.2-2 1.2-1.8 1-1.8 2t-1.5 1.2q-1.5 0.3-5.5 0.6l-4 0.2v-0.5l-2-0.5-2-0.5-1-0.5-1-0.5-0.2-0.3q-0.3-0.2-2-1-1.8-0.7-3.8-4-2-3.2-3-3.4-1-0.3-0.5-0.8t-1.7-5.8q-2.3-5.2-4.3-5.2t-6.7-2q-4.8-2-4.8-3t-2.5-3.2l-2.5-2.3-0.2-0.3-0.3-0.2 0.7-2.8q0.8-2.7 2.3-5 1.5-2.2 3.7-3.7 2.3-1.5 3-2.3 0.8-0.7 4.8-3.2t6-2.8q2-0.2 4.5-3 2.5-2.7 8-1.2t7 2.5 1.7 1.3l0.3 0.2 0.3-1q0.2-1 1.2-1.2l1-0.3 0.2-0.3 0.3-0.2 0.3-0.2 0.2-0.3 0.2-0.3 0.3-0.2 0.3-0.2 0.2-0.3 2-16.5q2-16.5 5.5-16.5t8.5-3.7q5-3.8 6.5-1 1.5 2.7 3.5 3.4 2 0.8 2-0.2t1-1 1.5 1.2q0.5 1.3 3.7 3 3.3 1.8 4.6 3.6 1.2 1.7 2.7 1 1.5-0.8 1.5 0.2t1 0.8z" fill="#f1c39e" stroke="#f1c39e"/>
  <path d="m189.2 105.5l5.8-4.5 1.5 0.5q1.5 0.5 3 4.3 1.5 3.7 3 6.7t6.5 7 7.5 4.5 2.5 0.8v0.4q0 0.3 0.5 0.6l0.5 0.2 1.2 1.5q1.3 1.5 1.6 2.3 0.2 0.7 1.2 1l1 0.2-2.5 3.8q-2.5 3.7-9.7 15-7.3 11.2-14.3 32.2t-9 36.5-5.5 33.5-4 19l-0.5 1-0.3 1-0.2 1-1 0.2-1 0.3-1.2-0.3q-1.3-0.2-1.6-1.2-0.2-1-2.2-1.8-2-0.7-7.2 3.6-5.3 4.2-8.6 8.4-3.2 4.3-12.7 9.8t-9 6 2 0.8l1.5 0.2v3l-9.5 2.2q-9.5 2.3-9.3 5.6 0.3 3.2 0 3.4l-0.2 0.3h-6l-0.2-0.3q-0.3-0.2-2.3-2.2t-6.5-7.5-7.2-12.5q-2.8-7-3.8-7t-2.8-4l-1.7-4-0.3-1.5q-0.2-1.5-1.7-2l-1.5-0.5v-1l0.5-0.2 0.5-0.3-0.2-0.3-0.3-0.2h-0.5l0.2-1q0.3-1 3.3-8.5t8-18 11-20.5 27.3-39.8q21.2-29.7 35-51.4 13.7-21.8 19.4-26.3z" fill="#e1ac87" stroke="#e1ac87"/>
  <path d="m598 677.2l1-0.2v1l0.8 3q0.7 3-0.3 4.5t-1.5 4-2 4-0.5 3.5 1.5 1 0.2 4.2q-0.2 5.3 2.3 5 2.5-0.2 3.5 1.6 1 1.7 1.5 4 0.5 2.2 1.5 2.2t3.2 7q2.3 7 2.6 7.2l0.2 0.3 0.2 0.3 0.3 0.2 0.5 2 0.5 2 0.3 0.5 0.2 0.5v0.2q0 0.3 0.5 0.6l0.5 0.2-0.2 1.5q-0.3 1.5 0.2 2.5l0.5 1 0.3 1 0.2 1-1.5-0.2q-1.5-0.3-3.5-0.6-2-0.2-2.2 0.8l-0.3 1-0.3 0.2-0.2 0.3 0.2 0.3 0.3 0.2 3.3 9q3.2 9 2.2 9t0.2 5q1.3 5 1 7.2-0.2 2.3-1.2 2.8t-1.5 1.2q-0.5 0.8-2.3 0.8-1.7 0-2.2 0.5t-0.8 0.7l-0.2 0.3 1.8 5.3q1.7 5.2 2.2 6.7l0.5 1.5 0.3 0.2 0.2 0.3-2 0.3q-2 0.2-2.8-1.3l-0.7-1.5 0.7 3.5q0.8 3.5-0.4 3-1.3-0.5-1 3.3 0.2 3.7 1.4 6.4 1.3 2.8 1.8 3.8l0.5 1 0.3 0.2 0.2 0.3-0.2 0.3-0.3 0.2-0.3 0.5-0.2 0.5h-43l0.2-3q0.3-3 0.6-5 0.2-2-0.8-2t0.8-11.5q1.7-11.5 1.7-24t-3.5-28.5-3.8-20q-0.2-4-1.2-4.2-1-0.3-1.2-3-0.3-2.8-1.3-10.3t-1.7-14l-0.8-6.5h-3v-0.5l4-0.5q4-0.5 6.5-0.8l2.5-0.2 1-0.2 1-0.3 2.5-0.5 2.5-0.5 4.5 0.7q4.5 0.8 5-0.4 0.5-1.3 3-1.8t4 0.2q1.5 0.8 1.5-0.2t3.5-1.2q3.5-0.3 4.5-0.6z" fill="#0b131f" stroke="#0b131f"/>
  <path d="m792 292v-1l6 2q6 2 6 1t2.8 0.5q2.7 1.5 7.7 6.5t7.3 8.2q2.2 3.3 0.4 4-1.7 0.8-1 3 0.8 2.3 4 7 3.3 4.8 4 8 0.8 3.3 1.8 3 1-0.2 4.5 3.6 3.5 3.7 6.7 5 3.3 1.2 4 2 0.8 0.7 2.3 1.2l1.5 0.5 0.2 0.3 0.3 0.2v3l-0.3 0.2-0.2 0.3-0.2 0.3q-0.3 0.2-5.8 6.2t-4 7.5 0.8 3.7l-0.8 2.3-0.2 0.3-0.3 0.2-0.3 0.2-0.2 0.3-0.2 0.3-0.3 0.2-0.3 1.5-0.2 1.5h-1l-0.2 0.5q-0.3 0.5-0.6 0.5h-0.2l-0.2-1-0.3-1-0.3 1-0.2 1v0.2q0 0.3-5 2.6l-5 2.2v-2l-2.5 0.2-2.5 0.3-2 0.5-2 0.5-1 0.5q-1 0.5-10.5 3t-24 2.5-16.5-1.5-6.5-3-7.5-3.5-6.8-5.3q-3.7-3.2-7.4-5-3.8-1.7-4.3-3.4-0.5-1.8 0.5-2 1-0.3-0.2-2.6-1.3-2.2-3-3-1.8-0.7-2-3.4l-0.3-2.8 0.3-1 0.2-1 11-3.8q11-3.7 19.5-5.7t16-4.5 10.5-3l3-0.5 1-0.5 1-0.5 0.2-0.3 0.3-0.2 0.3-0.2 0.2-0.3 1-0.5 1-0.5 0.2-0.3 0.3-0.2 0.3-0.2 0.2-0.3 0.2-0.3 0.3-0.2v-3l-0.3 0.2-0.2 0.3-2.5 0.5-2.5 0.5-4 0.5q-4 0.5-5.5 1l-1.5 0.5h-2l-3-0.3-3-0.2v-0.5l1-0.5 1-0.5 0.2-0.3 0.3-0.2 0.3-0.2 0.2-0.3 0.2-0.3 0.3-0.2 0.3-0.2 0.2-0.3 0.2-0.3 0.3-0.2 0.3-0.2 0.2-0.3 6.5-1.7q6.5-1.8 6.5-3.3t1.8-1.5q1.7 0 2.4-3.2 0.8-3.3 2.6-5 1.7-1.8 2-2.8 0.2-1 1.2-1t1.8-2q0.7-2-3-5.5-3.8-3.5-3.8-4.5zm34.2 42.8l-0.2-0.3 0.2-0.3q0.3-0.2 0.3 0.3t-0.3 0.3z" fill="#e4ae87" stroke="#e4ae87"/>
  <path d="m337.5 391l2.5 0.5 0.2 0.3 0.3 0.2 0.3 0.2 0.2 0.3 0.2 0.3 0.3 0.2 0.3 0.2 0.2 0.3 0.2 0.3 0.3 0.2 0.3 0.2q0.2 0.3 0.7 0.6l0.5 0.2v0.2q0 0.3 0.5 0.6l0.5 0.2 4.2 10q4.3 10 9.8 19.5t7.2 13q1.8 3.5 2.8 3.5t3.2 5.5q2.3 5.5 2.8 9t0.8 6l0.2 2.5-2 2.8q-2 2.7-4 2-2-0.8-2 2.2t-1 3-1.5 7-1.5 7-1.5 1.2q-0.5 1.3-1.5 1.6l-1 0.2-0.2 2-0.3 2-0.3-0.2-0.2-0.3-1-0.3-1-0.2-0.2-1-0.3-1-0.3-1q-0.2-1-2.7-1.2-2.5-0.3-5.7-6-3.3-5.8-5.8-9.3l-2.5-3.5-0.3-1-0.2-1-4-0.2-4-0.3-0.2-0.3-0.3-0.2-0.3 2.5-0.2 2.5h-0.5l-0.5-1-0.5-1-0.5-1q-0.5-1-3-4.5t-9-19-13-29-9.8-15.5l-3.2-2h3l-0.2-1-0.3-1-0.5-3q-0.5-3-1.2-5l-0.8-2h1q1 0 3-2.2 2-2.3 7-2.3t11 1 10.5 3 8.5 2 6.5 0.5z" fill="#e6b998" stroke="#e6b998"/>
  <path d="m575.8 480.8l0.2-0.3h8l-0.2 0.3-0.3 0.2-0.3 0.2-0.2 0.3-0.2 0.3-0.3 0.2-1.5 2.5q-1.5 2.5-1.5 3.5v1l0.3 0.2 0.2 0.3 0.2 0.3 0.3 0.2 0.3 0.2 0.2 0.3h8l1-0.3q1-0.2 1-1.2t1-1h1l-2 5.8q-2 5.7-2.2 6l-0.3 0.2-0.3 0.2-0.2 0.3-1 0.5-1 0.5 0.2 0.3 0.3 0.2 0.3 0.2 0.2 0.3 0.2 0.3 0.3 0.2 0.3 0.2 0.2 0.3h9l-0.2 0.3-0.3 0.2v2l1.3-0.5q1.2-0.5 2.2-4.5t2.5-4.8q1.5-0.7 8-1.2t8.5-1.2q2-0.8 2.8 1.2 0.7 2 1 1.8 0.2-0.3 1.7-0.6l1.5-0.2 0.5 2q0.5 2 1.5 2t0.2 4.5q-0.7 4.5-1 5.5l-0.2 1-0.5 0.2-0.5 0.3v0.5l-0.5 0.2q-0.5 0.3 0 0.6l0.5 0.2h0.2q0.3 0 0.6-0.5l0.2-0.5h0.2q0.3 0 0.6-0.5l0.2-0.5 0.8 0.5q0.7 0.5 0.7 1.5v1l-0.3 1q-0.2 1 2.3 0t2.5-2.5 1-1.3q1 0.3 2 0.8l1 0.5 1 0.3 1 0.2-0.2 1-0.3 1-1.7 5.2q-1.8 5.3-3 7.6-1.3 2.2-0.8 6.2t0.5 7v3l0.3 0.2 0.2 0.3h2l1-0.3 1-0.2 0.2-1 0.3-1 0.5 1.5 0.5 1.5h0.5l-2.8 14.5q-2.7 14.5-3 15.5l-0.2 1h-0.2q-0.3 0-1.3-5l-1-5-0.3 0.2-0.2 0.3-0.2 0.3-0.3 0.2-0.3-0.2-0.2-0.3-0.2-0.3-0.3-0.2-0.3-0.2-0.2-0.3h-3l-0.2 0.3-0.3 0.2-0.3 0.2q-0.2 0.3-2.2 4.3t-6.8 5.3q-4.7 1.2-6.4 1.4-1.8 0.3-2.8-1.4-1-1.8-2-1.6-1 0.3-1.8-0.4l-0.7-0.8-0.5 1-0.5 1-0.3 0.2-0.2 0.3-0.2 0.3-0.3 0.2-0.5 4.5q-0.5 4.5-1 6l-0.5 1.5h-0.5l-0.5 0.2-0.5 0.3-0.2 0.3-0.3 0.2-0.3 0.2-0.2 0.3-0.2 0.3-0.3 0.2-0.3-0.2-0.2-0.3-0.2-0.3-0.3-0.2-0.3-2q-0.2-2-2.7-2.8l-2.5-0.7-1 0.5q-1 0.5-5.5 5.8-4.5 5.2-6.5 6.4l-2 1.3 3.8 4.3q3.7 4.2 4 5.7 0.2 1.5 1.2 1.5t0.8 3.5l-0.3 3.5-0.3 0.2-0.2 0.3-0.2 0.3-0.3 0.2-0.3 0.2-0.2 0.3-0.5 0.3-0.5 0.2-0.2-0.5-0.3-0.5-0.5-2-0.5-2-0.3-0.2-0.2-0.3-0.8 0.7q-0.7 0.8-1.2 2.3l-0.5 1.5-0.5-2q-0.5-2-1.2-4.5-0.8-2.5-6.6-6-5.7-3.5-13-5.7-7.2-2.3-14.7-1.3t-10.5 1-6-1.5-2.5-4.2l0.5-2.8-1 0.2-1 0.3-1 0.5q-1 0.5-2 2.2-1 1.8-6 1.3t-5-1.5-6-5-6-5-1.5-1-1.7-1q-0.3-1-2-1.5-1.8-0.5-1.8-1.5t-1.5-1-1.7-1q-0.3-1-2-0.5-1.8 0.5-1.8-0.5t-5.5-1.2l-5.5-0.3-0.2-0.3-0.3-0.2-0.3-0.2-0.2-0.3-1.5-0.5-1.5-0.5-1-0.3-1-0.2v-2l0.5-0.2 0.5-0.3-0.2-0.3-0.3-0.2-0.3-0.2-0.2-0.3v-0.5l3-0.2 3-0.3 0.2-0.3q0.3-0.2 2.6 0.3 2.2 0.5 2.4-0.5 0.3-1 2.3-1t3.7-0.2q1.8-0.3 4.6-4.6 2.7-4.2 3.2-6.7t1.8-3.3q1.2-0.7 0.2-1.2t0.8-3.2q1.7-2.8 4.4-5.6l2.8-2.7 0.2-0.3 0.3-0.2 0.5-1 0.5-1 0.5-1 0.5-1 0.3-1 0.2-1 0.5-0.2q0.5-0.3 0.5-0.6v-0.2l1.5 0.2q1.5 0.3 2.5 0.6 1 0.2 1.5-5l0.5-5.3-0.2-0.3-0.3-0.2v-2l0.3-0.2 0.2-0.3 0.2-0.3 0.3-0.2 0.5 1 0.5 1 0.3 0.2 0.2 0.3 1 0.5 1 0.5 0.2 0.3 0.3 0.2 0.3 0.2 0.2 0.3 5.2 3.7q5.3 3.8 5.8 6.3t1.8 7.3q1.2 4.7 1.4 5l0.3 0.2 0.3 0.2 0.2 0.3 0.2 0.3 0.3 0.2 0.3 0.2 0.2 0.3 0.2 0.3 0.3 0.2 0.3 0.2 0.2 0.3-0.2 0.3-0.3 0.2-0.3 0.2-0.2 0.3h5l1.5-0.5 1.5-0.5 0.2-0.3 0.3-0.2v-3.5q0-1.5 0.3-3.5 0.2-2 1.2-2.2 1-0.3 0.8-2.6-0.3-2.2 6.4-9 6.8-6.7 9-10.4 2.3-3.8 2.8-7.8t-0.5-8.5-0.7-7l0.2-2.5h0.5l0.3 0.2 0.2 0.3 0.2 0.3 0.3 0.2 0.3-1 0.2-1 1-0.2 1-0.3 3.5-2q3.5-2 5.3-1.7 1.7 0.2 2-0.8 0.2-1 1.2-1.2l1-0.3 0.2-0.3 0.3-0.2 0.3-0.2z" fill="#d59669" stroke="#d59669"/>
  <path d="m469.2 192.5l-0.2-1.5 5 1.2q5 1.3 5.8 2 0.7 0.8 2.7 12.3t2.5 12.5 0.5 7.5v6.5l-0.3 2.5-0.2 2.5 2-0.2 2-0.3 0.2-0.3 0.3-0.2v-4l-0.3-3.5-0.2-3.5 2.5 5q2.5 5 3.5 5t1 1.8q0 1.7 0.8 2 0.7 0.2 0 2.4-0.8 2.3-1.8 3.3t0 1.3q1 0.2 1.5 1.4 0.5 1.3 0.5 4 0 2.8 5 3 5 0.3 6-0.2l1-0.5 0.2-0.3 0.3-0.2 0.3-0.2 0.2-0.3 1-0.3 1-0.2-0.2 1-0.3 1-0.5 1-0.5 1-0.3 0.2q-0.2 0.3-2 3.6l-1.7 3.2-0.3 1-0.2 1 2.5-1.2q2.5-1.3 2.7-1.6l0.3-0.2-0.7 4.5q-0.8 4.5 1.2 4.3 2-0.3 2.2 0l0.3 0.2 0.3 3 0.2 3-0.2 0.5-0.3 0.5-0.3 0.2-0.2 0.3-0.2 0.3q-0.3 0.2-3.3 2.2t-6.3 3.2q-3.2 1.3-4 2.6-0.7 1.2-4 3.4-3.2 2.3-12.7 2.3t-16.5-5-16-14l-9-9-0.2-0.3-0.3-0.2-0.3-0.2-0.2-0.3-0.2-0.3-0.3-0.2-0.3-0.2-0.2-0.3-0.2-0.3-0.3-0.2-0.3-0.2-0.2-0.3-0.2-0.3-0.3-0.2-0.3-0.2-0.2-0.3-0.2-0.3-0.3-0.2-0.3-0.2-0.2-0.3-0.2-0.3-0.3-0.2-0.3 3-0.2 3h-0.5l-0.5-3q-0.5-3-3.8-35l-3.2-32h0.5l0.3-1.5 0.2-1.5 1.5-0.2 1.5-0.3 3.5 2q3.5 2 14.5 1t11.5-1 3 0.5l2.5 0.5h5l-1-0.5-1-0.5-0.2-0.3-0.3-0.2-0.3-1.5zm23.8 57.5q1 0 1 1t-1 1h-1v-1q0-1 1-1z" fill="#dba178" stroke="#dba178"/>
  <path d="m670.8 331.8l0.2-0.3h3l-0.2 0.3-0.3 0.2-0.3 0.2-0.2 0.3-0.2 0.3-0.3 0.2-0.3 0.2-0.2 0.3-0.2 0.3-0.3 0.2-0.5 1q-0.5 1-1 1.5l-0.5 0.5-0.5 1-0.5 1-0.3 0.2-0.2 0.3-0.2 0.3-0.3 0.2-0.3 0.2-0.2 0.3v0.5l-3.2 6q-3.3 6-4.3 12.5t-1.5 8.5l-0.5 2-0.3 1-0.2 1 8.5-0.8q8.5-0.7 12.5-0.2t4 0.8v0.2l-0.5 0.2q-0.5 0.3-5.5 1.3t-13 3.5-19.8 20.2l-11.7 17.8-0.5 1-0.5 1-0.5 1-0.5 1-0.3 1.5-0.2 1.5-0.5 0.2q-0.5 0.3-0.5 0.6v0.2l-0.2 2.5q-0.3 2.5-0.6 6.5l-0.2 4-0.2 5-0.3 5-0.3 0.2-0.2 0.3-0.2 0.3-0.3 0.2-0.3 0.2-0.2 0.3-0.2 0.3-0.3 0.2-0.3-0.2-0.2-0.3-2.2-2.3q-2.3-2.2-2.6-1.2-0.2 1-1.7 1t-5.5 10.5-5 10.5-2.5 5.8q-1.5 5.7-6.5 10.7t-5 5.3v0.2l-0.5 0.2q-0.5 0.3-0.5 0.6v0.2l-0.5 0.2q-0.5 0.3-1.5 0.8l-1 0.5h-8l-0.2-0.3-0.3-0.2-0.3-0.2-0.2-0.3-0.2-0.3-0.3-0.2v-1q0-1 1.5-3.5l1.5-2.5 0.3-0.2 0.2-0.3 0.2-0.3 0.3-0.2 0.3-0.2 0.2-0.3h-8l-0.2 0.3-0.3 0.2-0.3 0.2-0.2 0.3-1 0.3q-1 0.2-1.2 1.2-0.3 1-2 0.8-1.8-0.3-5.3 1.7l-3.5 2-1 0.3-1 0.2-0.2 1-0.3 1-0.3-0.2-0.2-0.3-0.2-0.3-0.3-0.2h-1v-2l0.3-0.2 0.2-0.3 0.2-0.3 0.3-0.2 0.3-0.2q0.2-0.3 0.7-5.6 0.5-5.2-0.5-5.2t-1.5-1.2q-0.5-1.3-4.5-3.6-4-2.2-3.8-3.2 0.3-1-1-1.5-1.2-0.5-1.4-2-0.3-1.5 0.4-2 0.8-0.5 0.3-4l-0.5-3.5h0.5v-6l-0.3-0.2-0.2-0.3 0.2-0.3 0.3-0.2 0.5-1.5q0.5-1.5 2-13t2.2-15q0.8-3.5 4.8-4.5t4-2-1-1.2q-1-0.3 2.8-1.6 3.7-1.2 2.4-5.7-1.2-4.5-0.2-4.7 1-0.3 0.8-2.6-0.3-2.2 1.4-3 1.8-0.7 2.3-2 0.5-1.2 2-1.4 1.5-0.3 2.5 0.2t1.5-0.2q0.5-0.8 3.5-0.8t3.2-1q0.3-1 2-2 1.8-1 2-4l0.3-3 0.3-0.2 0.2-0.3 1-0.3 1-0.2-0.2-1q-0.3-1 0.4-3l0.8-2 2-1.2q2-1.3 8-0.3t10.8 1.7q4.7 0.8 9.4 1 4.8 0.3 7.3-0.7t5-2.5 3.5-1.2q1 0.2 11.5-12 10.5-12.3 14.3-15.6 3.7-3.2 4-3.4l0.2-0.3 0.2-0.3 0.3-0.2 0.3-0.2 0.2-0.3 0.2-0.3 0.3-0.2 0.3-0.2 0.2-0.3 0.2-0.3 0.3-0.2 0.3-0.2 0.2-0.3 0.2-0.3 0.3-0.2 0.3-0.2 0.2-0.3 0.2-0.3 0.3-0.2 0.3-0.2z" fill="#de9a6c" stroke="#de9a6c"/>
  <path d="m455.2 681.5l1.8-4.5 10 1.8q10 1.7 10.5 2l0.5 0.2-0.5 0.8q-0.5 0.7 0.5 1 1 0.2 0 1.4-1 1.3-1.8 1.6-0.7 0.2-1 3.4-0.2 3.3 0.8 3.6 1 0.2 0.8 9.7-0.3 9.5-0.8 10.5l-0.5 1-0.3 0.2-0.2 0.3-0.2 0.3-0.3 0.2-0.3 1-0.2 1-0.2 3.5q-0.3 3.5-1.6 21.3-1.2 17.7-2 36-0.7 18.2-1 28.2l-0.2 10h-56l0.2-1 0.3-1 0.5-2.5q0.5-2.5 0-4.5t2-12 5.5-22.5 6.3-34q3.2-21.5 4.2-21.7 1-0.3 0.8-2.6-0.3-2.2 1.7-6.7t2.7-9q0.8-4.5 1.8-4.3 1 0.3 1.5-1.4 0.5-1.8 2.5-2 2-0.3 2.8-2.6 0.7-2.2 2.7-1.7t3.5 0 3.2-5z" fill="#0c1525" stroke="#0c1525"/>
  <path d="m383.2 679.2l0.3-0.2h1.5q1.5 0 0.8 3-0.8 3 1.2 3.5t2.5 1.3q0.5 0.7 2 1.7t8.5 0 9-0.7q2 0.2 2.5-0.6 0.5-0.7 2 0.8t2.5 1.5 1.2 0.3l0.3 0.2 0.3 0.5 0.2 0.5 1.8 2q1.7 2 2 4 0.2 2-0.8 2t-0.5 2.2q0.5 2.3 0.5 5 0 2.8-1.8 2.8-1.7 0-1.7 7t-7.5 32.5-10.5 41-3 19-0.3 5.5l-0.2 2h-57l-0.2-1-0.3-1v-1q0-1 0-7.5t2.5-12 2-6.5 0.8-2q1.2-1 2.2-7t0-6 0.8-9q1.7-9 7.2-27.5t14.5-33 10.7-18l1.8-3.5 0.5-0.2q0.5-0.3 0.5-0.6v-0.2l0.5-0.2q0.5-0.3 0.7-0.6z" fill="#122031" stroke="#122031"/>
  <path d="m432.8 279.8l0.2-0.3 1.5-0.3 1.5-0.2 0.2 1 0.3 1 0.5 1.5q0.5 1.5 1 5l0.5 3.5 0.5-1 0.5-1h0.5l1 6.8q1 6.7 0.8 7-0.3 0.2-0.6 1.2l-0.2 1v3q0 3-1.2 3.5-1.3 0.5-1.6 3.3-0.2 2.7-1 3.4-0.7 0.8 0.8 3.3t1.2 2.7q-0.2 0.3 1.8 0.8l2 0.5-1 0.5-1 0.5h-4q-2 0-10 0.5t-16 2.5-19 2-19.2-5.3q-8.3-5.2-23-8.2-14.8-3-14.8-2t-3.5 0.2q-3.5-0.7-10 1.3t-6.5 4.7v2.8l-1-0.2-1-0.3-0.2-0.3-0.3-0.2-0.3-0.2-0.2-0.3-4.5-0.5q-4.5-0.5-6-1.5t-2.5-0.5-1.2-1.8q-0.3-2.2-1.8-4.7t-6.2-2.3q-4.8 0.3-12.8-4.7l-8-5-0.2-0.3-0.3-0.2-0.3-0.2-0.2-0.3-0.2-0.3-0.3-0.2-0.5-1-0.5-1-0.5-1-0.5-1-0.3-0.2-0.2-0.3 1-0.5 1-0.5v-0.5h0.5l0.3 0.2 0.2 0.3 0.2 0.3 0.3 0.2 0.3 0.2 0.2 0.3 24.5-4.5q24.5-4.5 35.5-4t26 4.5 24.2 9.7q9.3 5.8 10 6.6 0.8 0.7 5.3-0.3t13.5-5.5 13.8-8.2q4.7-3.8 6.2-7.3t2-4.5l0.5-1 0.3-0.2 0.2-0.3 0.2-0.3 0.3-0.2 0.3-0.2 0.2-0.3 0.2-0.3 0.3-0.2 0.3-0.2z" fill="#de9d6e" stroke="#de9d6e"/>
  <path d="m818.8 134.8l0.2-0.3 1.5-0.5q1.5-0.5 2-0.8l0.5-0.2v0.2q0 0.3 0.5 0.6l0.5 0.2 10.5 18.2q10.5 18.3 25.7 41 15.3 22.8 25.8 44.3t12 27.5 2 7.5l0.5 1.5 0.3 3 0.2 3-0.5-0.2-0.5-0.3-0.2-0.3-0.3-0.2-0.5-1-0.5-1-0.3-1-0.2-1-1.5 0.2-1.5 0.3-0.2 0.3-0.3 0.2-0.3 0.2-0.2 0.3-0.2 0.3-0.3 0.2-0.5 1-0.5 1-0.3 0.2q-0.2 0.3-3 6.6-2.7 6.2-5.4 8-2.8 1.7-3 3.4-0.3 1.8-3 2.6-2.8 0.7-6.8 2.2t-8.5 1.8q-4.5 0.2-4.5-0.8t-6-1.2q-6-0.3-10.5-1.8t-7.3-5.2q-2.7-3.8-4-3.6l-1.2 0.3-1-0.3-1-0.2 0.2-1.5 0.3-1.5 1.3 0.8q1.2 0.7 2.2 0.4l1-0.2-0.2-1-0.3-1-0.5-1-0.5-1-0.3-0.2-0.2-0.3-1-0.5-1-0.5-0.2-0.3-0.3-0.2-0.3-0.2q-0.2-0.3-1.2-0.3t-2.2 1.7l-1.3 1.8-0.3-1.5q-0.2-1.5-1.2-1.5t-0.8-2q0.3-2-2.4-5.2l-2.8-3.3-0.2-0.3-0.3-0.2-0.3-0.2-0.2-0.3-1-0.5-1-0.5-0.2-0.3-0.3-0.2-0.5 1.5q-0.5 1.5-1.8 1-1.2-0.5-2 2l-0.7 2.5-0.3 1-0.2 1h-2l-0.2-8q-0.3-8-0.8-10t-2-27-9-48-10.2-26.8l-2.8-3.7-0.2-0.3-0.3-0.2-0.3-0.2-0.2-0.3-1-0.5-1-0.5-0.2-0.3-0.3-0.2-0.3-0.2-0.2-0.3v-0.5l5-1q5-1 4.2 1-0.7 2-0.4 2.2 0.2 0.3 1.2 0.3h1l1-0.5 1-0.5 1.2-0.7q1.3-0.8 1-3.3-0.2-2.5 1.8-1.7 2 0.7 3.5-0.8t3.7-1.8q2.3-0.2 4.3-3.2t2.7-2.2q0.8 0.7 6.3-3 5.5-3.8 5.7-2.8 0.3 1 0.6 0.8zm-18.6 13q-0.2-0.3 0-0.6 0.3-0.2 0.3 0.3t-0.3 0.3zm-4 1q-0.2-0.3 0-0.6 0.3-0.2 0.3 0.3t-0.3 0.3z" fill="#d7a279" stroke="#d7a279"/>
  <path d="m477.8 125.8l0.2-0.3 1-0.3 1-0.2 3 0.2q3 0.3 6.5 0.6l3.5 0.2v0.2q0 0.3 0.5 0.6l0.5 0.2v0.2q0 0.3 1 0.8l1 0.5 0.2 0.3 0.3 0.2 0.3 0.2 0.2 0.3 0.2 0.3 0.3 0.2 0.3 0.2 0.2 0.3 0.2 0.3 0.3 0.2 0.3 1 0.2 1 4-0.5q4-0.5 4 0.5t5 2.2q5 1.3 6.8 6.6 1.7 5.2 2 13.4 0.2 8.3 2.2 8.6 2 0.2 1.2 4.2-0.7 4-6 9.8-5.2 5.7-9.2 8.2t-4.5 3-0.7 0.8l-0.3 0.2-0.3 0.2-0.2 0.3-1 0.3-1 0.2-3.2 3q-3.3 3-5.6 16.8-2.2 13.7-2.4 13.4-0.3-0.2-0.6 0.8l-0.2 1 0.2 3.5 0.3 3.5v4l-0.3 0.2-0.2 0.3-2 0.3-2 0.2 0.2-2.5 0.3-2.5v-6.5q0-6.5-0.5-7.5t-2.5-12.5-2.7-12.3q-0.8-0.7-5.8-2l-5-1.2-0.5-0.2-0.5-0.3-0.2-0.3-0.3-0.2-0.3-0.2-0.2-0.3-1-0.5q-1-0.5-5.5-2t-9-4.5-5.3-5.3q-0.7-2.2 0.6-4 1.2-1.7 2.2-4.4 1-2.8 2-2.8t1.2-2.5q0.3-2.5 1.3-4t0-3-1.5-8 0.5-7.5 0.3-5q-0.8-4 0.7-4.2 1.5-0.3 2-2 0.5-1.8 3-1.6 2.5 0.3 10.5-0.7l8-1 0.2-0.3 0.3-0.2 0.3-0.2z" fill="#f8ccaa" stroke="#f8ccaa"/>
  <path d="m267 294.8v0.7l-1 0.5-1 0.5 0.2 0.3 0.3 0.2 0.5 1 0.5 1 0.5 1 0.5 1 0.3 0.2 0.2 0.3 0.2 0.3 0.3 0.2 0.3 0.2 0.2 0.3 8 5q8 5 12.8 4.7 4.7-0.2 6.2 2.3t1.8 4.7q0.2 2.3 1.2 1.8t2.5 0.5 6 1.5l4.5 0.5 0.2 0.3 0.3 0.2 0.3 0.2 0.2 0.3 1 0.3 1 0.2 0.2 1 0.3 1 0.3 0.2 0.2 0.3 0.2 0.3 0.3 0.2 0.5 1 0.5 1 0.3 0.2 0.2 0.3-0.2 0.3-0.3 0.2-0.3 0.2-0.2 0.3-2 0.3-2 0.2-0.5-0.2-0.5-0.3-0.2-0.3-0.3-0.2-0.3-0.2q-0.2-0.3-1.4-1.6-1.3-1.2-3.6-2l-2.2-0.7-0.2 0.3-0.3 0.2-0.5 1.5q-0.5 1.5-0.8 2.5-0.2 1-1.2 1t-1 3.5-2.5 3.3q-2.5-0.3-1.5 0.7t1 2-7 0.3q-7-0.8-7 0.2t1.5 1.8q1.5 0.7-2 1.2t-3 2.2q0.5 1.8-8.5 2.8l-9 1v-2l1 0.2q1 0.3 3 0.6l2 0.2-0.2-1-0.3-1-0.3-0.2-0.2-0.3-0.2-0.3-0.3-0.2-0.3-0.2-0.2-0.3-1-0.5-1-0.5-1.5-0.5-1.5-0.5-1-0.5q-1-0.5-2-1t-11.2-3.2q-10.3-2.8-18.6-5-8.2-2.3-14.7-6-6.5-3.8-6.7-4.8-0.3-1-7.6-7-7.2-6-8-8l-0.7-2v-1q0-1-0.3-1.8-0.2-0.7 5.8-5.4 6-4.8 6.2-8.3 0.3-3.5 3-5 2.8-1.5 4-4 1.3-2.5 0.6-3l-0.8-0.5 7.5-0.8q7.5-0.7 17.5 1.3t17 5.5 11.5 7 4.5 3.8z" fill="#eabd94" stroke="#eabd94"/>
  <path d="m265 50.5h2l-1 0.5q-1 0.5-0.8 3.2l0.3 2.8 0.5-1 0.5-1 0.7-0.8q0.8-0.7 3.8-0.7h3l0.2 0.3 0.3 0.2 0.3 0.2 0.2 0.3-0.8 0.7q-0.7 0.8 0.6 1.6 1.2 0.7 0 1.4-1.3 0.8 2 3.3 3.2 2.5 3.7 5.5t3.3 5.5q2.7 2.5 5.4 6.3 2.8 3.7 4 7.4 1.3 3.8-0.4 5.6-1.8 1.7 0.2 2 2 0.2 1.8 1.2-0.3 1-0.8 2.5l-0.5 1.5-0.5-1q-0.5-1-0.8 1-0.2 2-3.2 2t-2.8 1q0.3 1-1.4 1.2-1.8 0.3-2 2-0.3 1.8-4 4-3.8 2.3-13.8 4.3t-19 5-10 2-1.2-0.3q-0.3 0.8-1 1.6-0.8 0.7-3.8 1.2t-2.5 1.8q0.5 1.2-3.5 1.2h-4l-0.2-0.5q-0.3-0.5-0.6-0.5h-0.2v-0.2q0-0.3-2.5-0.8t-7.5-4.5-6.5-7-3-6.7q-1.5-3.8-3-4.3l-1.5-0.5 4.8-9.5q4.7-9.5 6.7-18.5t5.7-11.2q3.8-2.3 11.3-5.8t12.3-4.8q4.7-1.2 7.4-3 2.8-1.7 7.3-1.2t7 2 4 1.5 3.5 0z" fill="#efbb9d" stroke="#efbb9d"/>
  <path d="m636 722.5h1l3 2q3 2 7.2 3.7 4.3 1.8 9.6 8.8 5.2 7 6.2 7t1 1.8q0 1.7 1.2 2.4 1.3 0.8 1.8 2.3t1 2.5l0.5 1 0.5 1 0.5 1 0.3 1 0.2 1 1 0.2 1 0.3 0.2 0.3 0.3 0.2 0.3 0.2 0.2 0.3 0.5 0.3 0.5 0.2 6.5 22.2q6.5 22.3 5.5 22.6-1 0.2-0.2 4.2 0.7 4 0.7 5v1l-0.3 0.5-0.2 0.5h-77l0.2-0.5 0.3-0.5 0.3-0.2 0.2-0.3-0.2-0.3-0.3-0.2-0.5-1q-0.5-1-2-4t-1-9.5l0.5-6.5 0.7 1.5q0.8 1.5 2.8 1.3l2-0.3-0.2-0.3-0.3-0.2-0.5-1.5q-0.5-1.5-2.2-6.7l-1.8-5.3 0.2-0.3q0.3-0.2 0.8-0.7t2.8-1.3q2.2-0.7 3.2-1.2t1.2-2.8q0.3-2.2-1-7.2-1.2-5-0.2-5t-2.2-9l-3.3-9-0.3-0.2-0.2-0.3 0.2-0.3 0.3-0.2 0.3-1q0.2-1 2.2-0.8 2 0.3 3.5 0.6l1.5 0.2-0.2-1-0.3-1-0.5-1q-0.5-1-0.8-3l-0.2-2 1.2 0.5q1.3 0.5 1.3-0.5v-1l-0.5-2q-0.5-2-0.5-2.5v-0.5l0.5-1.5 0.5-1.5 0.3 0.2 0.2 0.3h1.5q1.5 0 3-0.3 1.5-0.2 2 0.6 0.5 0.7 2.3 0 1.7-0.8 2.2 0.2t0.8 0q0.2-1 1.7-1.2 1.5-0.3 4 0.4 2.5 0.8 1.5-1.4-1-2.3 0-2.3z" fill="#101926" stroke="#101926"/>
  <path d="m536 270v-2l5 4.8q5 4.7 25.5 15.7t21.5 11.3l1 0.2v0.2q0 0.3 0.5 0.6l0.5 0.2v0.2q0 0.3 0.2 1.6 0.3 1.2-3 5l-3.2 3.7-0.2 0.3-0.3 0.2-0.3 0.2-0.2 0.3-0.2 0.3-0.3 0.2-0.3 0.2-0.2 0.3-0.2 0.3-0.3 0.2-0.3 0.2-0.2 0.3-0.2 0.3-0.3 0.2-0.3 1.5-0.2 1.5 2.5 0.2 2.5 0.3h3l5.5-2q5.5-2 6.5-2.5l1-0.5 1-0.5 1-0.5 0.2-0.3 0.3-0.2 0.3-0.2 0.2-0.3 0.2-0.3 0.3-0.2 0.3 0.2 0.2 0.3 0.2 0.3 0.3 0.2 0.3 0.2 0.2 0.3 0.2 0.3 0.3 0.2v2l-0.5 1.5-0.5 1.5-0.5 1-0.5 1-0.3 0.2-0.2 0.3-0.2 0.3-0.3 0.2-0.3 0.2q-0.2 0.3-7 7-6.7 6.8-9 7-2.2 0.3-1.4 1.6 0.7 1.2-3.8 6.7t-5.8 5q-1.2-0.5-1.4 1.5-0.3 2-1 2.2-0.8 0.3-1.3 1-0.5 0.8-2.5 1-2 0.3-3 2l-1 1.8-0.5 0.2q-0.5 0.3-0.5 0.6v0.2l-0.5-0.2q-0.5-0.3-1 0.4l-0.5 0.8h-1q-1 0-1.2 1.5-0.3 1.5-1 1.7-0.8 0.3-1.3 1-0.5 0.8-1.5 1-1 0.3-1.5 3.6-0.5 3.2-3.5 4.4-3 1.3-2.8 2.6 0.3 1.2-1 0.4-1.2-0.7-2-0.4l-0.7 0.2-0.3 0.2-0.2 0.3h-1q-1 0-3-2.3-2-2.2-3.2-2.7-1.3-0.5-2.8-3.5t-3.2-4.2q-1.8-1.3-3.3-3-1.5-1.8-2.5-1.8t-1-1-1-1.2q-1-0.3-2-2.6-1-2.2-4-3.2t-3.2-2q-0.3-1-2.3-1t-8.3 0.5l-6.2 0.5v-4h1q1 0 1.8-4 0.7-4 2-10 1.2-6-0.3-5.5l-1.5 0.5 0.2-1 0.3-1 0.3-0.2 0.2-0.3 4.8-1.7q4.7-1.8 6.4-6 1.8-4.3 4.3-3.8t8.5-4.5 6.8-4.3q0.7 0.8 2.2-3.2t1-5l-0.5-1-0.3-0.2-0.2-0.3 2.5 1q2.5 1 3.5 1h1l0.2 0.3 0.3 0.2v-4l-0.3-0.2-0.2-0.3-0.2-0.3q-0.3-0.2-0.6 0-0.2 0.3-1.4-2.4-1.3-2.8-1.3-9.3t-1.3-7q-1.2-0.5-1.2-2.5z" fill="#d58052" stroke="#d58052"/>
  <path d="m642.8 650h0.2v0.2q0 0.3 0.5 0.6l0.5 0.2 0.2 2q0.3 2-0.7 5t0 15.5 9 22 12 18.5 6 21 2.5 15.5l0.5 3.5 0.3 3 0.2 3-0.5-0.2-0.5-0.3-0.2-0.3-0.3-0.2-0.3-0.2-0.2-0.3-1-0.3-1-0.2-0.2-1-0.3-1-0.5-1-0.5-1-0.5-1q-0.5-1-1-2.5t-2.8-2.5q-2.2-1-1.7-2.2 0.5-1.3-5.3-8.6-5.7-7.2-10-9-4.2-1.7-7.2-3.7l-3-2h-1q-1 0 0 2.3 1 2.2-1 2.4-2 0.3-2.8-1-0.7-1.2-2-0.7-1.2 0.5-1.4 1.5-0.3 1-0.8 0t-2.2-0.2q-1.8 0.7-2.3 0-0.5-0.8-2-0.6-1.5 0.3-3 0.3h-1.5l-0.2-0.3-0.3-0.2-0.5 1.5-0.5 1.5v0.5q0 0.5 0.5 2.5l0.5 2 0.3 1 0.2 1h-2l-0.2-0.5-0.3-0.5h-0.5l-0.2-0.5-0.3-0.5-0.5-2-0.5-2-0.3-0.2-0.2-0.3-0.2-0.3q-0.3-0.2-2-6.2-1.8-6-3.3-6t-2-3.2q-0.5-3.3-1.5-5-1-1.8-3.5-1.6-2.5 0.3-2.3-5 0.3-5.2-0.2-4.2t-1.5-1 0.5-3.5 2-4 1.5-4 0.3-4.5l-0.8-3v-1l0.5-1.5q0.5-1.5 1.5-1.3l1 0.3 0.2 0.3 0.3 0.2v-1q0-1 0.7-2l0.8-1 0.5-0.2 0.5-0.3 0.2-0.3 0.3-0.2 0.3-0.2 0.2-0.3 1-0.5 1-0.5 1.5-0.5q1.5-0.5 2-1.2 0.5-0.8 1.5-0.8h1v0.5l1 0.5 1 0.5 0.2 0.3 0.3 0.2 0.3-1 0.2-1 1-0.2 1-0.3 0.2-0.3 0.3-0.2 0.3-0.2 0.2-0.3 9.5-5q9.5-5 11.3-7.3 1.7-2.2 2-2.2z" fill="#121924" stroke="#121924"/>
  <path d="m681.5 372.2l0.5-0.2 3.2 1q3.3 1 5.6 2.5 2.2 1.5 1.7 3.7-0.5 2.3 4.5 1.8t9-0.2q4 0.2 4 1.2t1.5 1 1.5 2.2q0 2.3 0 3.3t0 1.3v0.2l-9.8 4q-9.7 4-16.2 17.5t-10.5 27-11 25.5-12 29.5-8 31-3.5 16l-0.5 2.5-0.3 1-0.2 1h-0.5l-0.5-1.5-0.5-1.5-0.3 1-0.2 1-1 0.2-1 0.3h-2l-0.2-0.3-0.3-0.2v-3q0-3-0.5-7t0.8-6.2q1.2-2.3 3-7.6l1.7-5.2 0.3-1 0.2-1-1-0.2-1-0.3h-2l-1 0.5q-1 0.5-2.8 1.8l-1.7 1.2-0.3 1-0.2 1h-2l0.2-1 0.3-1 0.5-1 0.5-1 0.3-1 0.2-1-1 0.2-1 0.3-1 0.3-1 0.2v-1.5l0.5-0.3 0.5-0.2v-0.2q0-0.3 1-0.8t2-3.2q1-2.8 2-2.8t1-1 1-1 1.2-2q0.3-2 1.6-3 1.2-1 1.4-5 0.3-4-0.4-8.8-0.8-4.7-2-12.4l-1.3-7.8-0.5-1-0.5-1-0.3-1-0.2-1h0.5l0.3 0.2 0.2 0.3 0.2 0.3 0.3 0.2 0.3 0.2 0.2 0.3 2.5 1.5q2.5 1.5 2.7 1.8l0.3 0.2 0.3-0.2 0.2-0.3 0.2-0.3 0.3-0.2 0.3-0.2q0.2-0.3 1.4-2 1.3-1.8 4.8-13.8t5-19 1.5-13.5v-6.5l-0.3-3-0.2-3-3 0.2-3 0.3-0.2 0.3-0.3 0.2-0.3 0.2-0.2 0.3-0.2 0.3-0.3 0.2-0.3 0.2-0.2 0.3-0.2 0.3q-0.3 0.2-5.8 6.2l-5.5 6-0.3 0.2-0.2 0.3-0.2 0.3-0.3 0.2-0.3 0.2-0.2 0.3-0.2 0.3-0.3 0.2-0.3 0.2-0.2 0.3-0.2 0.3-0.3 0.2-0.3 0.2-0.2 0.3-0.2 0.3-0.3 0.2-0.3 1-0.2 1h-2l0.2-1 0.3-1 0.5-1 0.5-1 0.5-1 0.5-1 0.5-1 0.5-1 11.7-17.8q11.8-17.7 19.8-20.2t13-3.5 5.5-1.3z" fill="#bd8260" stroke="#bd8260"/>
  <path d="m778 277.8v0.2l-1 0.2-1 0.3 0.2 0.3 0.3 0.2 0.3 2.5 0.2 2.5 1.5 0.2 1.5 0.3 5.5 3q5.5 3 6 3.3l0.5 0.2v0.2q0 0.3 0.5 0.6l0.5 0.2v0.2q0 0.3 3.2 4 3.3 3.8 2.6 5.8-0.8 2-1.8 2t-1.2 1q-0.3 1-2 2.8-1.8 1.7-2.6 5-0.7 3.2-2.4 3.2-1.8 0-1.8 1.5t-6.5 3.3l-6.5 1.7-0.2 0.3-0.3 0.2-0.3 0.2-0.2 0.3-0.2 0.3-0.3 0.2-0.3 0.2-0.2 0.3-0.2 0.3-0.3 0.2-0.3 0.2-0.2 0.3-1 0.5-1 0.5v0.5l-4.5-0.2q-4.5-0.3-21.5-1.6-17-1.2-17.2-2.2-0.3-1-7.6-2.2-7.2-1.3-10.7 1.2t-4 3.8q-0.5 1.2-1.5 1.4-1 0.3-2.5 2-1.5 1.8-2.5 1.8t-1-1-1-1.2q-1-0.3-2.5 0.2t-2-0.2q-0.5-0.8-1.5-0.6l-1 0.3-1 0.5-1 0.5-1 0.5-1 0.5-1.5 0.3-1.5 0.2v-0.5l1-0.5 1-0.5 0.2-0.3 0.3-0.2 0.3-0.2 0.2-0.3 0.2-0.3 0.3-0.2 0.3-0.2 0.2-0.3 0.2-0.3 0.3-0.2 1.7-1q1.8-1 1.8-4.5t1.5-3.7q1.5-0.3 0.5-0.6-1-0.2-0.5-3 0.5-2.7 2.5-1.4 2 1.2 3-0.6 1-1.7 5-3.7t8.8-6.7q4.7-4.8 5.4-7.3 0.8-2.5-0.2-2.7-1-0.3-1-0.6v-0.2l4.5-1.8q4.5-1.7 12.5-6.7t13.5-6 18.5-0.5 14 1 1 0.8z" fill="#eabd9a" stroke="#eabd9a"/>
  <path d="m811 271.5l0.5-1.5 0.3 0.2 0.2 0.3 1 0.5 1 0.5 0.2 0.3 0.3 0.2 0.3 0.2 0.2 0.3 2.8 3.3q2.7 3.2 2.4 5.2-0.2 2 0.8 2t1.2 1.5l0.3 1.5 1.3-1.8q1.2-1.7 2.2-1.7t1.2 0.3l0.3 0.2 0.3 0.2 0.2 0.3 1 0.5 1 0.5 0.2 0.3 0.3 0.2 0.5 1 0.5 1 0.3 1 0.2 1-0.8 0.5q-0.7 0.5 2.6 4.7 3.2 4.3 7.7 5.8t10.5 1.8q6 0.2 6 1.2t4.5 0.8q4.5-0.3 8.5-1.8t6.8-2.2q2.7-0.8 3-2.6 0.2-1.7 3-3.4 2.7-1.8 5.4-8 2.8-6.3 3-6.6l0.3-0.2 0.5-1 0.5-1 0.3-0.2 0.2-0.3 0.2-0.3 0.3-0.2 0.3-0.2 0.2-0.3 1.5-0.3 1.5-0.2 0.2 1 0.3 1 0.5 1 0.5 1 0.3 0.2 0.2 0.3 0.5 0.3 0.5 0.2h0.5l0.5 2q0.5 2 1 9t1 6.5 2 5.5 3.8 7.5q2.2 1.5 2 9-0.3 7.5-3.8 12.5t-12 12.5-31.2 18.3l-22.8 10.7-1 0.5-1 0.5-1 0.3-1 0.2h-1l-0.5 0.2-0.5 0.3v0.5h-1l0.2-1 0.3-1 0.3-0.2 0.2-0.3 1-0.5 1-0.5 0.2-0.3 0.3-0.2 0.3-0.2 0.2-0.3 0.2-0.3 0.3-0.2 0.3-0.2 0.2-0.3 0.8-2.3q0.7-2.2-0.8-3.7t4-7.5 5.8-6.2l0.2-0.3 0.2-0.3 0.3-0.2v-3l-0.3-0.2-0.2-0.3-1.5-0.5q-1.5-0.5-2.3-1.2-0.7-0.8-4-2-3.2-1.3-6.7-5-3.5-3.8-6.5-3.6l-3 0.3 0.2-0.3q0.3-0.2 2-1 1.8-0.7 1-3-0.7-2.2-4-7-3.2-4.7-4-7-0.7-2.2 1-3 1.8-0.7-0.4-4-2.3-3.2-7.3-8.2t-7.7-6.5q-2.8-1.5-2.8-0.5t-5.5-0.5l-5.5-1.5-0.2-0.5q-0.3-0.5-0.6-0.5h-0.2l-0.5-0.2q-0.5-0.3-6-3.3l-5.5-3-1.5-0.3-1.5-0.2-0.2-2.5-0.3-2.5-0.3-0.2-0.2-0.3 1-0.3 1-0.2 1.5 0.2 1.5 0.3 1 0.5 1 0.5 4 1q4 1 6 0.5t5.5-1l3.5-0.5 1-0.3 1-0.2h2l0.2-1 0.3-1 0.7-2.5q0.8-2.5 2-2 1.3 0.5 1.8-1zm16.2 18l0.3-1.5 0.7 1.5q0.8 1.5-0.2 1.5h-1l0.2-1.5z" fill="#c38156" stroke="#c38156"/>
  <path d="m626.8 565.8l0.2-0.3h3l0.2 0.3 0.3 0.2 0.3 0.2 0.2 0.3 0.2 0.3 0.3 0.2 0.3-0.2 0.2-0.3 0.2-0.3 0.3-0.2 1 5q1 5 1.3 5h0.2l0.2 13.5q0.3 13.5 2.8 23t2.8 10.5l0.2 1h-1q-1 0-1.2-1-0.3-1-3.3-4.5t-6.3-5q-3.2-1.5-3.2-2.5t-5.5-0.5-5.5 1.5-1 1-2 3-4.5 2.2l-3.5-0.7-0.2-0.3-0.3-0.2-0.3 0.2-0.2 0.3h-2l-0.2-0.3-0.3-0.2-0.3-0.2-0.2-0.3-0.2-0.3-0.3-0.2-0.3-0.2-0.2-0.3-0.2-0.3-0.3-0.2-0.3-0.2-0.2-0.3-0.2-0.3-0.3-0.2-0.3-0.2-0.2-0.3-0.2-0.3-0.3-0.2h-0.5l0.2-8q0.3-8 1.6-12.5l1.2-4.5h0.5l0.5-1.5q0.5-1.5 1-6l0.5-4.5 0.3-0.2 0.2-0.3 0.2-0.3 0.3-0.2 0.5-1 0.5-1 0.7 0.8q0.8 0.7 1.8 0.4 1-0.2 2 1.6 1 1.7 2.8 1.4 1.7-0.2 6.4-1.4 4.8-1.3 6.8-5.3t2.2-4.3l0.3-0.2 0.3-0.2z" fill="#d1956b" stroke="#d1956b"/>
  <path d="m639.5 622.8l0.5 0.2v0.2q0 0.3 0.5 0.6l0.5 0.2 1.2 12.5q1.3 12.5 1.6 13.5l0.2 1-1.5 0.2q-1.5 0.3-2.5 1.8t-10.5 6.5l-9.5 5-0.2 0.3-0.3 0.2-0.3 0.2-0.2 0.3-1 0.3-1 0.2-0.2 1-0.3 1-0.3-0.2-0.2-0.3-1-0.5-1-0.5v-0.5l0.2-0.5 0.3-0.5 0.3-0.2 0.2-0.3 0.2-0.3 0.3-0.2 0.5-1.5q0.5-1.5 1.5-5t0-12.5-4.7-13.2q-3.8-4.3-7.6-3l-3.7 1.2-0.3 1-0.2 1h-2l0.2-1 0.3-1 0.5-1.5q0.5-1.5 0.5-3t-1-4l-1-2.5-0.5-1-0.5-1-0.5-1-0.5-1-0.3-1-0.2-1h0.5l0.3 0.2 0.2 0.3 0.2 0.3 0.3 0.2 0.3 0.2 0.2 0.3 0.2 0.3 0.3 0.2 0.3 0.2 0.2 0.3 0.2 0.3 0.3 0.2 0.3 0.2 0.2 0.3 0.2 0.3 0.3 0.2 0.3 0.2 0.2 0.3h2l0.2-0.3 0.3-0.2 0.3 0.2 0.2 0.3 3.5 0.7q3.5 0.8 4.5-2.2t2-3 1-1 5.5-1.5 5.5 0.5 3.2 2.5q3.3 1.5 6.6 5.3 3.2 3.7 3.7 4z" fill="#bf7a50" stroke="#bf7a50"/>
  <path d="m303.8 326.8l0.2-0.3 2.2 0.7q2.3 0.8 3.6 2 1.2 1.3 1.4 1.6l0.3 0.2 0.3 0.2 0.2 0.3 0.5 0.3 0.5 0.2 3.8 5.5q3.7 5.5 9.2 15.5t10 22.5 4.8 12.7q0.2 0.3 0.4 0.6l0.3 0.2 0.5 1 0.5 1 0.5 1 0.5 1 0.3 0.2 0.2 0.3 0.2 0.3 0.3 0.2 0.3 1 0.2 1h-2l-0.2-1-0.3-1-0.3-0.2-0.2-0.3-0.2-0.3-0.3-0.2-0.3-0.2-0.2-0.3-0.2-0.3-0.3-0.2-0.3-0.2-0.2-0.3-2.5-0.5q-2.5-0.5-6.5-0.5t-8.5-2-10.5-3-11-1-7 2.3q-2 2.2-3 2.2h-1l0.8 2q0.7 2 1.2 5l0.5 3 0.3 1 0.2 1h-3l-1-0.2q-1-0.3-13-0.3t-31 0.5-27-1-29-9l-21-7.5-1-0.5-1-0.5-1.5-0.5-1.5-0.5-0.2-0.3-0.3-0.2h-0.5v-2l2.5-0.2 2.5-0.3h4l7.5 2.5q7.5 2.5 15 4t14.5 1 12.2-2.2q5.3-1.8 8.6-4 3.2-2.3 7.7-5.3t7.7-4.7q3.3-1.8 3.6-2.8 0.2-1-1.6-1-1.7 0-2-1-0.2-1 0.8-1t1.8-2q0.7-2 0.2-3t-0.8-1.8q-0.2-0.7 0.8-1 1-0.2 1-1.2t1-1.2l1-0.3-1.5-0.5q-1.5-0.5-3.5-2l-2-1.5-0.2-0.3-0.3-0.2-0.3-0.2-0.2-0.3-0.2-0.3-0.3-0.2-0.3-0.2-0.2-0.3-0.2-0.3-0.3-0.2-0.3-0.2-0.2-0.3-0.2-0.3-0.3-0.2-0.3-0.2-0.2-0.3h6l0.2 0.3 0.3 0.2 0.3 0.2 0.2 0.3 6 1.5q6 1.5 8 1.2l2-0.2v0.2q0 0.3 0.5 0.6l0.5 0.2 6.5-0.2q6.5-0.3 8.5-0.6 2-0.2 1.5-2-0.5-1.7 3-2.2t2-1.2q-1.5-0.8-1.5-1.8t7-0.2q7 0.7 7-0.3t-1-2 1.5-0.7q2.5 0.2 2.5-3.3t1-3.5 1.2-1q0.3-1 0.8-2.5l0.5-1.5 0.3-0.2z" fill="#cf9469" stroke="#cf9469"/>
  <path d="m176 274.5h1l1-0.3 1-0.2 0.2 1.5q0.3 1.5 0.6 2.5l0.2 1 1.5 0.2 1.5 0.3 3 1q3 1 8 0.5t8-1.5 5-1.3l2-0.2 0.8 0.5q0.7 0.5-0.6 3-1.2 2.5-4 4-2.7 1.5-3 5-0.2 3.5-6.2 8.3-6 4.7-5.8 5.4 0.3 0.8 0.3 1.8v1l0.7 2q0.8 2 8 8 7.3 6 7.6 7 0.2 1 6.7 4.8 6.5 3.7 14.7 6 8.3 2.2 18.6 5 10.2 2.7 11.2 3.2t2 1l1 0.5 1.5 0.5 1.5 0.5 1 0.5 1 0.5 0.2 0.3 0.3 0.2 0.3 0.2 0.2 0.3 0.2 0.3 0.3 0.2 0.3 1 0.2 1h-5l-0.2-0.5-0.3-0.5h-0.5l-2 0.2q-2 0.3-8-1.2l-6-1.5-0.2-0.3-0.3-0.2-0.3-0.2-0.2-0.3h-6l0.2 0.3 0.3 0.2 0.3 0.2 0.2 0.3 0.2 0.3 0.3 0.2 0.3 0.2 0.2 0.3 0.2 0.3 0.3 0.2 0.3 0.2 0.2 0.3 0.2 0.3 0.3 0.2 0.3 0.2 0.2 0.3 2 1.5q2 1.5 3.5 2l1.5 0.5-1 0.3q-1 0.2-1 1.2t-1 1.2q-1 0.3-0.8 1 0.3 0.8 0.8 1.8t-0.2 3q-0.8 2-1.8 2t-0.8 1q0.3 1 2 1 1.8 0 1.6 1-0.3 1-3.6 2.8-3.2 1.7-7.7 4.7t-7.7 5.3q-3.3 2.2-8.6 4-5.2 1.7-12.2 2.2t-14.5-1-15-4l-7.5-2.5h-4l-2.5 0.3-2.5 0.2v2l-0.5-0.2q-0.5-0.3-5-2.3t-30-15.5-34.3-21.2q-8.7-7.8-15.2-17.8t-6.5-17.5 3-11 5.5-11l2.5-7.5 0.5-1 0.5-1 0.3-0.2 0.2-0.3 0.2-0.3 0.3-0.2 0.3-0.2 0.2-0.3 0.2-0.3 0.3-0.2h0.5v-2h0.5l0.3 0.2 0.2 0.3 0.2 0.3 0.3 0.2 0.5 1 0.5 1 0.5 1.5 0.5 1.5 1.7 4q1.8 4 2.8 4t3.8 7q2.7 7 7.2 12.5t6.5 7.5 2.3 2.2l0.2 0.3h6l0.2-0.3q0.3-0.2 0-3.4-0.2-3.3 9.3-5.6l9.5-2.2v-3l-1.5-0.2q-1.5-0.3-1.7-1.6l-0.3-1.2-0.3-1-0.2-1 1 0.2 1 0.3 6.2-2.7q6.3-2.8 10.8-6.3t7.2-7.3q2.8-3.7 6.8-6.2t5.5-1.8q1.5 0.8 2 2 0.5 1.3 1.5 1.3z" fill="#dea57f" stroke="#dea57f"/>
  <path d="m553.5 167.5v2.5l0.3 1 0.2 1-1.5-0.2-1.5-0.3-0.2-0.3-0.3-0.2-0.3 0.2-0.2 0.3-1 0.5-1 0.5-0.2 0.3-0.3 0.2-0.3 0.2-0.2 0.3-0.2 0.3-0.3 0.2-0.3 0.2-0.2 0.3-0.2 0.3-0.3 0.2-0.5-2-0.5-2v-2.5q0-2.5 0-15t-1.5-18-2.5-8l-1-2.5-0.3-0.2-0.2-0.3-2-0.5q-2-0.5-3-1l-1-0.5-1-0.3q-1-0.2-1.2 0.8-0.3 1-2 1.5-1.8 0.5-2.3 2.7-0.5 2.3-3 1.3t-16-1.3l-13.5-0.2-0.2-0.5q-0.3-0.5-0.6-0.5h-0.2l-3.5-0.2q-3.5-0.3-6.5-0.6l-3-0.2v-0.5l-5-0.5q-5-0.5-7.8-3.8-2.7-3.2-3-6.7-0.2-3.5 0.8-3.7l1-0.3-0.2-0.3-0.3-0.2-0.3-0.2-0.2-0.3-1-0.5-1-0.5 0.2-0.3 0.3-0.2v-1l-0.3-0.2-0.2-0.3-1-0.3-1-0.2-0.2 1.5q-0.3 1.5-1 2.3l-0.8 0.7-1.5 0.3-1.5 0.2v-1q0-1 1.2-1.5 1.3-0.5-3-1.3-4.2-0.7-3.4-2 0.7-1.2-0.6-2-1.2-0.7-1.4-3.4-0.3-2.8-1.3-4.8t-2.7-3.2l-1.8-1.3-0.2-0.3-0.3-0.2-0.3-0.2-0.2-0.3-0.2-0.3-0.3-0.2-0.3-0.2-0.2-0.3 1.5-0.5 1.5-0.5 1-0.5q1-0.5 0-0.8l-1-0.2 2-0.8q2-0.7 4.2-1.4 2.3-0.8 3.3-4.8t3.7-5q2.8-1 2.8 0t7.5 0 7.5 0 10.5 0.2q10.5-0.7 17-0.4 6.5 0.2 6 1.4-0.5 1.3 4.3 1.6 4.7 0.2 5 1 0.2 0.7 5.2 3.2t7 5.5 8.5 7.7q6.5 4.8 6.5 6.3t1 1.5 1 1 1 1 4.2 6.5q3.3 6.5 4 16 0.8 9.5-0.2 9.5t-0.2 8.5q0.7 8.5 0.2 16t-1.5 6.5-1 1.5zm-105.3-78q0.3-1.5 0.8-0.5t0.8 1.2q0.2 0.3-0.8 0.6-1 0.2-0.8-1.3z" fill="#463023" stroke="#463023"/>
  <path d="m499.8 712.5l0.2-1.5 1.8 0.5q1.7 0.5 2.7 2.5t1 10v8l-0.3 2-0.2 2-1.8 5q-1.7 5-2.2 9.5t0 6.5 0.5 28 0.3 28.5l0.2 2.5h-33l0.2-10q0.3-10 1-28.2 0.8-18.3 2-36 1.3-17.8 1.6-21.3l0.2-3.5 1 0.2 1 0.3h1l4.2-0.7q4.3-0.8 5-1.6 0.8-0.7 2.3 0.8t3.5 2 3 0.8l1 0.2v-2h3l0.2-1.5q0.3-1.5 0.6-3z" fill="#0c1726" stroke="#0c1726"/>
  <path d="m543.2 685.5l-1.2-1.5h13l0.8 6.5q0.7 6.5 1.7 14t1.3 10.3q0.2 2.7 1.2 3 1 0.2 1.2 4.2 0.3 4 3.8 20t3.5 28.5-1.7 24q-1.8 11.5-0.8 11.5t0.8 2q-0.3 2-0.6 5l-0.2 3h-22l0.2-2q0.3-2-0.4-44-0.8-42 0.2-42t0-2.8q-1-2.7-2.5-5.2t-1.5-6.2v-3.8l0.2-0.5q0.3-0.5 1.6-4 1.2-3.5 2.2-3.7 1-0.3 0.8-7.6-0.3-7.2-1.6-8.7zm2 17.7q0.3-0.2 0.6 0 0.2 0.3-0.3 0.3t-0.3-0.3z" fill="#091527" stroke="#091527"/>
  <path d="m589 584l1-0.5 2.5 0.7q2.5 0.8 2.7 2.8l0.3 2 0.3 0.2 0.2 0.3 0.2 0.3 0.3 0.2 0.3-0.2 0.2-0.3 0.2-0.3 0.3-0.2 0.3-0.2 0.2-0.3 0.5-0.3 0.5-0.2-1.2 4.5q-1.3 4.5-1.6 12.5l-0.2 8 0.2 1 0.3 1 0.5 1 0.5 1 0.5 1 0.5 1 1 2.5q1 2.5 1 4t-0.3 3.5l-0.2 2h-0.2q-0.3 0-0.6 0.5l-0.2 0.5-0.2 13q-0.3 13 0 19.5l0.2 6.5h5l-0.8 1q-0.7 1-0.7 2v1l-0.3-0.2-0.2-0.3h-1q-1 0-0.8 0.3l0.3 0.2v2l-0.3 0.2-0.2 0.3-0.5 0.3-0.5 0.2v-1l-1 0.2q-1 0.3-4.5 0.6-3.5 0.2-3.5 1.2t-1.2 0.5q-1.3-0.5-3-0.5-1.8 0-1.8 1t-1 0.8q-1-0.3-1.5 0.4-0.5 0.8-5 0l-4.5-0.7-2.5 0.5-2.5 0.5-1 0.3-1 0.2 0.2-0.5 0.3-0.5 0.3-0.2 0.2-0.3 0.2-0.3 0.3-0.2 0.3-0.2 0.2-0.3 0.2-0.3 0.3-0.2 0.3-0.2 0.2-0.3 0.2-0.3 0.3-0.2 0.3-0.2 0.2-0.3 0.2-0.3 0.3-0.2 0.3-0.2 0.2-0.3 0.2-0.3q0.3-0.2 4.3-4.7t4.3-7.3q0.2-2.7 0.7-17.2t1.5-21.8l1-7.2 0.5-0.2 0.5-0.3 0.2-0.3 0.3-0.2 0.3-0.2 0.2-0.3 0.2-0.3 0.3-0.2 0.3-3.5q0.2-3.5-0.8-3.5t-1.2-1.5q-0.3-1.5-4-5.7l-3.8-4.3 2-1.3q2-1.2 6.5-6.4 4.5-5.3 5.5-5.8z" fill="#a96138" stroke="#a96138"/>
  <path d="m427 669.2v-0.2l1.5 0.2 1.5 0.3 2 0.5 2 0.5 11.5 3q11.5 3 11.5 3.3v0.2l-1.8 4.5q-1.7 4.5-3.2 5t-3.5 0-2.7 1.7q-0.8 2.3-2.8 2.6-2 0.2-2.5 2-0.5 1.7-1.5 1.4-1-0.2-1.8 4.3-0.7 4.5-2.7 9t-1.7 6.7q0.2 2.3-0.8 2.6-1 0.2-4.2 21.7-3.3 21.5-6.3 34t-5.5 22.5-2 12 0 4.5l-0.5 2.5-0.3 1-0.2 1h-17l0.2-2q0.3-2 0.3-5.5t3-19 10.5-41 7.5-32.5 1.7-7q1.8 0 1.8-2.8 0-2.7-0.5-5-0.5-2.2 0.5-2.2t0.8-2q-0.3-2-2-4l-1.8-2h0.5l0.5-3q0.5-3 2.5-8.5t3.3-7.3l1.2-1.7 0.2-0.3 0.3-0.2 0.3-0.2 0.2-0.3v-0.3z" fill="#0d1726" stroke="#0d1726"/>
  <path d="m538.2 710h1.8v3.8q0 3.7 1.5 6.2t2.5 5.2q1 2.8 0 2.8t-0.2 42q0.7 42 0.4 44l-0.2 2h-21l0.2-4.5q0.3-4.5 1.3-24.5t-0.5-26-2.2-13.2q-0.8-7.3-1.6-8-0.7-0.8-4-2.8-3.2-2-4 0.5l-0.7 2.5-0.5-2-0.5-2-0.3 0.2-0.2 0.3-1 0.3-1 0.2 0.2-1 0.3-1 0.3-1.5 0.2-1.5 0.5-1.8q0.5-1.7 1.5-2.2t2.2 0.2q1.3 0.8 2.6-3.7 1.2-4.5 3-5.5 1.7-1 2-3 0.2-2 3.4-3 3.3-1 4-0.2 0.8 0.7 2.8 0.4 2-0.2 2.2 1.3l0.3 1.5 0.3-0.2q0.2-0.3 0.7-0.3t1.3-2.7q0.7-2.8 2.4-2.8z" fill="#0a182b" stroke="#0a182b"/>
  <path d="m616 662.5l-0.5 1.5-0.3 0.2-0.2 0.3-0.2 0.3-0.3 0.2-0.3 0.5-0.2 0.5h-1q-1 0-1.5 0.8-0.5 0.7-2 1.2l-1.5 0.5-1 0.5-1 0.5-0.2 0.3-0.3 0.2-0.3 0.2-0.2 0.3-0.5 0.3-0.5 0.2h-5l-0.2-6.5q-0.3-6.5 0-19.5l0.2-13 0.5-0.2q0.5-0.3 0.5-0.6v-0.2l0.5-0.2q0.5-0.3 0.7-0.6l0.3-0.2 3.7-1.2q3.8-1.3 7.6 3 3.7 4.2 4.7 13.2t0 12.5-1.5 5z" fill="#da9c6c" stroke="#da9c6c"/>
  <path d="m528.8 252.8l0.2-0.3 0.2-0.3 0.3-0.2 1 2q1 2 1.5 3.5l0.5 1.5 0.3-0.2 0.2-0.3 0.2-0.3 0.3-0.2 0.3 0.2 0.2 0.3 0.5 0.3 0.5 0.2 0.2 0.5q0.3 0.5 0.6 4.5l0.2 4v2q0 2 1.2 2.5 1.3 0.5 1.3 7t1.3 9.3q1.2 2.7 1.4 2.4 0.3-0.2 0.6 0l0.2 0.3 0.2 0.3 0.3 0.2v4l-0.3-0.2-0.2-0.3h-1q-1 0-2.8 1.3-1.7 1.2-3.2 4.2t-2.2 2.2q-0.8-0.7-6.8 4.3t-8.5 4.5-4.3 3.8q-1.7 4.2-6.4 6l-4.8 1.7-0.2 0.3-0.3 0.2-0.3 1-0.2 1-2 3.8q-2 3.7-2.2 4l-0.3 0.2-0.3 0.2-0.2 0.3-0.2 0.3-0.3 0.2-0.3-0.2-0.2-0.3-0.2-0.3-0.3-0.2-0.3-1q-0.2-1-1.7-1.2-1.5-0.3-2.7-1l-1.3-0.8-0.5-1-0.5-1-0.3 0.2-0.2 0.3-0.2 0.3-0.3 0.2-0.3 0.2-0.2 0.3-0.2 0.3-0.3 0.2v2.5q0 2.5-0.5 6.5l-0.5 4-0.3-0.2-0.2-0.3-0.2-0.3-0.3-0.2-0.5-1-0.5-1-0.3-0.2-0.2-0.3-0.2-0.3-0.3-0.2-0.5-1-0.5-1-0.5-1q-0.5-1-3.8-9.5-3.2-8.5-5.7-9.5t-2.7-4l-0.3-3-0.3 0.2-0.2 0.3-0.2 0.3q-0.3 0.2-1.3-0.8l-1-1-0.3-0.2-0.2-0.3-0.2-0.3-0.3-0.2-0.3-0.2-0.2-0.3-0.2-0.3-0.3-0.2-0.3-0.2-0.2-0.3-1.5-0.3-1.5-0.2 0.2 2q0.3 2-0.2 4.5l-0.5 2.5-0.3-0.2-0.2-0.3-0.2-0.3-0.3-0.2-0.3-0.2-0.2-0.3-0.2-0.3-0.3-0.2-0.5-1-0.5-1-0.3-0.2q-0.2-0.3-1-1-0.7-0.8-3.4-2.3-2.8-1.5-2.6-2.5 0.3-1-0.4-1.5-0.8-0.5-0.8 1t-1.2 2l-1.3 0.5-0.3-0.2-0.2-0.3-0.2-0.3-0.3-0.2-0.5-1-0.5-1-0.3 0.2-0.2 0.3-0.2 0.3-0.3 0.2h-0.5l0.2-1q0.3-1 0.6-1.2 0.2-0.3-0.8-7l-1-6.8-0.2-2.5-0.3-2.5-0.5-3q-0.5-3-1.8-9l-1.2-6 0.2-3 0.3-3 0.3 0.2 0.2 0.3 0.2 0.3 0.3 0.2 0.3 0.2 0.2 0.3 0.2 0.3 0.3 0.2 0.3 0.2 0.2 0.3 0.2 0.3 0.3 0.2 0.3 0.2 0.2 0.3 0.2 0.3 0.3 0.2 0.3 0.2 0.2 0.3 0.2 0.3 0.3 0.2 0.3 0.2 0.2 0.3 9 9q9 9 16 14t16.5 5 12.7-2.3q3.3-2.2 4-3.4 0.8-1.3 4-2.6 3.3-1.2 6.3-3.2t3.3-2.2l0.2-0.3 0.2-0.3 0.3-0.2 0.3-0.5 0.2-0.5h0.5l0.5-1.5 0.5-1.5 0.5-1 0.5-1 2.7-6.2q2.8-6.3 4.6-9 1.7-2.8 2-3l0.2-0.3 0.2-0.3 0.3-0.2 0.3-0.2 0.2-0.3 0.2-0.3 0.3-0.2 0.3-0.2zm6.4 41l-0.2-0.3 1-0.3q1-0.2 0.5 0.6-0.5 0.7-0.7 0.4l-0.3-0.2-0.3-0.2z" fill="#9f5a3a" stroke="#9f5a3a"/>
  <path d="m819.8 127.2l0.2 0.3 0.2 0.3 0.3 0.2 0.3 0.2 0.2 0.3 0.2 0.3 0.3 0.2 0.5 1 0.5 1 0.3 0.2 0.2 0.3 0.2 0.3 0.3 0.2 0.3 1 0.2 1-2.5 0.2-2.5 0.3-0.2 0.3q-0.3 0.2-0.6-0.8-0.2-1-5.7 2.8-5.5 3.7-6.3 3-0.7-0.8-3 3.7-2.2 4.5-4.7 5t-3-0.3q-0.5-0.7-4 2.3l-3.5 3-1 0.5-1 0.5h-1q-1 0-1.2-0.3-0.3-0.2 0.4-2.2 0.8-2-4.2-1l-5 1-1-0.2q-1-0.3-3-1-2-0.8-2-2.3t-1-1.5-1 2-15.5 2-15.5-1-5-3.8q-5-2.7-10.5-5.2t-10.5-2.5-5.8-3.3q-0.7-3.2-4-6.4-3.2-3.3-0.2-4 3-0.8 2.5-2-0.5-1.3 0.3-10 0.7-8.8 3-9.8 2.2-1 3.2-2.8 1-1.7 1.8-4 0.7-2.2 1.2-3.2t0.5-3.5-1.7-2q-1.8 0.5-1-1.5l0.7-2 2.3-2.2q2.2-2.3 3.2-1.8t2.5-2 8-4 10.7 0.8q4.3 2.2 15 9 10.8 6.7 25.3 14.7t22.3 13.7q7.7 5.8 13.7 10.3t6.3 4.7zm-21.8 17.8q1 0 1 1t-1 1-1-1 1-1zm-7.8 3.5q-0.2-1.5 0.8-1.5t0.2 1.5q-0.7 1.5-1 0z" fill="#e1ad84" stroke="#e1ad84"/>
  <path d="m764.5 326.8l4.5 0.2 3 0.2 3 0.3h2l1.5-0.5q1.5-0.5 5.5-1l4-0.5 2.5-0.5 2.5-0.5 0.2-0.3 0.3-0.2 1.3-0.5q1.2-0.5 1.2 0.5t-1 1-1.2 1l-0.3 1-0.3 0.2-0.2 0.3-0.2 0.3-0.3 0.2-0.3 0.2-0.2 0.3-1 0.5-1 0.5-0.2 0.3-0.3 0.2-0.3 0.2-0.2 0.3-1 0.5-1 0.5-3 0.5q-3 0.5-10.5 3t-16 4.5-19.5 5.7l-11 3.8-0.2 1-0.3 1 0.3 2.8q0.2 2.7 2 3.4 1.7 0.8 3 3 1.2 2.3 0.2 2.6-1 0.2-0.5 2 0.5 1.7 4.3 3.4 3.7 1.8 7.4 5 3.8 3.3 6.8 5.3t7.5 3.5 6.5 3 16.5 1.5 24-2.5 10.5-3l1-0.5 2-0.5 2-0.5 2.5-0.3 2.5-0.2v2l-1 0.2-1 0.3-1 0.5-1 0.5-1.5 0.5-1.5 0.5-1.5 0.5q-1.5 0.5-7 2.5t-19.5 5.5-24 4-25-2.5-21.5-3.3l-6.5-0.2v-0.2q0-0.3 0-1.3t0-3.3q0-2.2-1.5-2.2t-1.5-1-4-1.2q-4-0.3-9 0.2t-4.5-1.8q0.5-2.2-1.7-3.7-2.3-1.5-5.6-2.5l-3.2-1v-0.2q0-0.3-4-0.8t-12.5 0.2l-8.5 0.8 0.2-1 0.3-1 0.5-2q0.5-2 1.5-8.5t4.3-12.5l3.2-6 1-0.2 1-0.3 0.2-0.3 0.3-0.2 4.7-4.2q4.8-4.3 5.8-4.6l1-0.2 1.5-0.2 1.5-0.3 1-0.5 1-0.5 1-0.5 1-0.5 1-0.3q1-0.2 1.5 0.6 0.5 0.7 2 0.2t6-1.2q4.5-0.8 5-2 0.5-1.3 4-3.8t10.7-1.2q7.3 1.2 7.6 2.2 0.2 1 17.2 2.2 17 1.3 21.5 1.6z" fill="#d49870" stroke="#d49870"/>
  <path d="m497.8 194l3.2-3-0.2 0.5-0.3 0.5-0.3 0.2-0.2 0.3-0.2 0.3-0.3 0.2-0.3 0.2-0.2 0.3-0.2 0.3-0.3 0.2-0.3 0.2-0.2 0.3-0.2 0.3-0.3 0.2v2l0.3-0.2 0.2-0.3 1.5-0.5 1.5-0.5 1.5-0.5 1.5-0.5 5-1.7q5-1.8 5-0.8t2.8 1q2.7 0 4.4 0.2 1.8 0.3 6.3 0.3t6 0 3-0.3l1.5-0.2 1 10q1 10 2 10h1v9l-1.8 12.5q-1.7 12.5-3.2 15.5t-1.8 6l-0.2 3-0.5-0.2-0.5-0.3-0.2-0.3-0.3-0.2-0.3 0.2-0.2 0.3-0.2 0.3-0.3 0.2-0.5-1.5q-0.5-1.5-1.5-3.5l-1-2-0.3 0.2-0.2 0.3-0.2 0.3-0.3 0.2-0.3 0.2-0.2 0.3-0.2 0.3-0.3 0.2-0.3 0.2-0.2 0.3-0.2 0.3q-0.3 0.2-2 3-1.8 2.7-4.6 9l-2.7 6.2-0.5 1-0.5 1-0.5 1.5-0.5 1.5h-0.5l-0.2-3-0.3-3-0.3-0.2q-0.2-0.3-2.2 0-2 0.2-1.2-4.3l0.7-4.5-0.3 0.2q-0.2 0.3-2.7 1.6l-2.5 1.2 0.2-1 0.3-1 1.7-3.2q1.8-3.3 2-3.6l0.3-0.2 0.5-1 0.5-1 0.3-1 0.2-1-1 0.2-1 0.3-0.2 0.3-0.3 0.2-0.3 0.2-0.2 0.3-1 0.5q-1 0.5-3 1.2-2 0.8-2-0.2t-3-1-2.8-3q0.3-3-2.4-1.5l-2.8 1.5 0.2-1 0.3-1 0.3-0.2 0.2-0.3 0.2-0.3 0.3-0.2 0.3-0.2 0.2-0.3 1-0.5q1-0.5 0-1t0.8-2.2q1.7-1.8 1-2.6-0.8-0.7-2-5-1.3-4.2-3.6-7.7l-2.2-3.5 0.2-1q0.3-1 0.6-0.8 0.2 0.3 2.4-13.4 2.3-13.8 5.6-16.8z" fill="#d79b76" stroke="#d79b76"/>
  <path d="m501.5 687l0.5-3 12 0.8q12 0.7 19.8 0 7.7-0.8 8-0.8h0.2l1.2 1.5q1.3 1.5 2 9.7 0.8 8.3-1.4 9-2.3 0.8-2.8 2.8t-0.8 2.5l-0.2 0.5h-1.8q-1.7 0-2.4 2.8-0.8 2.7-1.3 2.7t-0.7 0.3l-0.3 0.2-0.3-1.5q-0.2-1.5-2.2-1.3-2 0.3-2.8-0.4-0.7-0.8-4 0.2-3.2 1-3.4 3-0.3 2-2 3-1.8 1-3 5.5-1.3 4.5-2.6 3.7-1.2-0.7-2.2-0.2t-1.5 2.2l-0.5 1.8h-0.5l-0.5 1-0.5 1-0.3 0.2-0.2 0.3-0.2 0.3-0.3 0.2-0.3 0.2-0.2 0.3-0.5 0.3-0.5 0.2 0.2-2 0.3-2v-8q0-8-1-10t-2.7-2.5l-1.8-0.5-0.5-0.2q-0.5-0.3 0-4.6 0.5-4.2 2-4.2t1.3-1.5q-0.3-1.5-0.3-5.5t-0.7-4.5q-0.8-0.5-0.3-3.5z" fill="#0d1829" stroke="#0d1829"/>
  <path d="m626.8 441l0.2-5 2.8 10.5q2.7 10.5 3 11.5l0.2 1 0.2 1 0.3 1 0.5 1 0.5 1 1.3 7.8q1.2 7.7 2 12.4 0.7 4.8 0.4 8.8-0.2 4-1.4 5-1.3 1-1.6 3-0.2 2-1.2 2t-1 1-1 1-2 2.8q-1 2.7-1.5 3.2t-0.5 0.8v0.2l-0.2 0.5q-0.3 0.5-0.6 0.5h-0.2l-0.2 0.5q-0.3 0.5-0.6 0.5h-0.4q-0.3 0 0.7-2t1.7-6.5q0.8-4.5-0.2-4.5t-1.5-2l-0.5-2-1.5 0.2q-1.5 0.3-1.7 0.6-0.3 0.2-1-1.8-0.8-2-2.8-1.2-2 0.7-8.5 1.2t-8 1.2q-1.5 0.8-2.5 4.8t-2.2 4.5l-1.3 0.5v-2l0.3-0.2 0.2-0.3h-9l-0.2-0.3-0.3-0.2-0.3-0.2-0.2-0.3-0.2-0.3-0.3-0.2-0.3-0.2-0.2-0.3 1-0.5 1-0.5 0.2-0.3 0.3-0.2 0.3-0.2q0.2-0.3 1-2.6 0.7-2.2 1.4-5.2l0.8-3h0.2q0.3 0 0.6-0.5l0.2-0.5v-0.2q0-0.3 5-5.3t6.5-10.7q1.5-5.8 2.5-5.8t5-10.5 5.5-10.5 1.7-1q0.3-1 2.6 1.2l2.2 2.3 0.2 0.3 0.3 0.2 0.3-0.2 0.2-0.3 0.2-0.3 0.3-0.2 0.3-0.2 0.2-0.3 0.2-0.3 0.3-0.2 0.3-5z" fill="#d09871" stroke="#d09871"/>
  <path d="m508 733l0.5-1h0.5l-0.2 1.5-0.3 1.5-0.3 1-0.2 1 1-0.2 1-0.3 0.2-0.3 0.3-0.2 0.5 2 0.5 2 0.7-2.5q0.8-2.5 4-0.5 3.3 2 4 2.8 0.8 0.7 1.6 8 0.7 7.2 2.2 13.2t0.5 26-1.3 24.5l-0.2 4.5h-21l-0.2-2.5q-0.3-2.5-0.3-28.5t-0.5-28 0-6.5 2.2-9.5l1.8-5 0.5-0.2 0.5-0.3 0.2-0.3 0.3-0.2 0.3-0.2 0.2-0.3 0.2-0.3 0.3-0.2 0.5-1z" fill="#0b1b31" stroke="#0b1b31"/>
  <path d="m647.8 402.8l0.2-0.3 3-0.3 3-0.2 0.2 3 0.3 3v6.5q0 6.5-1.5 13.5t-5 19-4.8 13.8q-1.2 1.7-1.4 2l-0.3 0.2-0.3 0.2-0.2 0.3-0.2 0.3-0.3 0.2-0.3-0.2q-0.2-0.3-2.7-1.8l-2.5-1.5-0.2-0.3-0.3-0.2-0.3-0.2-0.2-0.3-0.2-0.3-0.3-0.2h-0.5l-0.2-1q-0.3-1-3-11.5l-2.8-10.5 0.2-4q0.3-4 0.6-6.5l0.2-2.5h0.2q0.3 0 0.6-0.5l0.2-0.5 0.5-0.2q0.5-0.3 0.7-0.6l0.3-0.2 0.3-0.2 0.2-0.3 0.2-0.3 0.3-0.2 0.3-0.2 0.2-0.3 0.2-0.3 0.3-0.2 0.3-0.2 0.2-0.3 0.2-0.3 0.3-0.2 0.3-0.2 0.2-0.3 0.2-0.3 0.3-0.2 5.5-6q5.5-6 5.8-6.2l0.2-0.3 0.2-0.3 0.3-0.2 0.3-0.2 0.2-0.3 0.2-0.3 0.3-0.2 0.3-0.2z" fill="#e2ad89" stroke="#e2ad89"/>
  <path d="m425.5 667.8l1.5 0.2v1.5l-0.2 0.3-0.3 0.2-0.3 0.2-0.2 0.3-1.2 1.7q-1.3 1.8-3.3 7.3t-2.5 8.5l-0.5 3h-0.5l-0.2-0.5-0.3-0.5-0.3-0.2q-0.2-0.3-1.2-0.3t-2.5-1.5-2-0.8q-0.5 0.8-2.5 0.6-2-0.3-9 0.7t-8.5 0-2-1.7q-0.5-0.8-2.5-1.3t-1.8-1.5q0.3-1-0.7-3l-1-2-0.3 1q-0.2 1-1.2 1h-1l-0.2-3q-0.3-3 0.2-11t-0.8-12l-1.2-4 0.5-0.2q0.5-0.3 11.5 4.7t22 8.5 12.5 3.8zm-39.3 11.4q0.3-0.2 0.6 0 0.2 0.3-0.3 0.3t-0.3-0.3z" fill="#151c27" stroke="#151c27"/>
  <path d="m477.5 681.8l0.5-0.8 10 1.2q10 1.3 12 1.6l2 0.2-0.5 2q-0.5 2 0.5 2t0.2 4.5q-0.7 4.5 0 7 0.8 2.5-0.7 2.5t-2 4.2q-0.5 4.3 0 4.6l0.5 0.2-0.2 1.5q-0.3 1.5-0.6 3l-0.2 1.5h-3v2l-1-0.2q-1-0.3-3-0.8t-3.5-2-2.3-0.8q-0.7 0.8-5 1.6l-4.2 0.7h-1l-1-0.3-1-0.2 0.2-1 0.3-1 0.3-0.2 0.2-0.3 0.2-0.3 0.3-0.2 0.5-1q0.5-1 0.8-10.5 0.2-9.5-0.8-9.7-1-0.3-0.8-3.6 0.3-3.2 1-3.4 0.8-0.3 1.8-1.6 1-1.2 0-1.4-1-0.3-0.5-1z" fill="#0a182a" stroke="#0a182a"/>
  <path d="m532 122.2l1 0.3 1 0.5q1 0.5 3 1l2 0.5 0.2 0.3 0.3 0.2 1 2.5q1 2.5 2.5 8t1.5 18 0 15v2.5l0.5 2 0.5 2 0.3-0.2 0.2-0.3 0.2-0.3 0.3-0.2 0.3-0.2 0.2-0.3 0.2-0.3 0.3-0.2 0.3-0.2 0.2-0.3 1-0.5 1-0.5 0.2-0.3 0.3-0.2 0.3 0.2 0.2 0.3h0.5q0.5 0 1-0.3l0.5-0.2v0.2q0 0.3 0.5 0.6l0.5 0.2 0.8 0.5q0.7 0.5-1 8.3-1.8 7.7-3 9-1.3 1.2-1.6 2-0.2 0.7 1 0.4 1.3-0.2 1 6.8-0.2 7-3.4 7.5-3.3 0.5-3.8 2.5t-1 7.5l-0.5 5.5h-0.5v-9h-1q-1 0-2-10l-1-10-1.5 0.2q-1.5 0.3-3 0.3t-6 0-6.3-0.3q-1.7-0.2-4.4-0.2-2.8 0-2.8-1t-5 0.8l-5 1.7-1.5 0.5-1.5 0.5-1.5 0.5-1.5 0.5-0.2 0.3-0.3 0.2v-2l0.3-0.2 0.2-0.3 0.2-0.3 0.3-0.2 0.3-0.2 0.2-0.3 0.2-0.3 0.3-0.2 0.3-0.2 0.2-0.3 0.2-0.3 0.3-0.2 0.3-0.5 0.2-0.5 1-0.2 1-0.3 0.2-0.3 0.3-0.2 0.3-0.2q0.2-0.3 0.7-0.8t4.5-3 9.2-8.2q5.3-5.8 6-9.8 0.8-4-1.2-4.2-2-0.3-2.2-8.6-0.3-8.2-2-13.4-1.8-5.3-6.8-6.6-5-1.2-5-2.2t-4-0.5l-4 0.5-0.2-1-0.3-1-0.3-0.2-0.2-0.3-0.2-0.3-0.3-0.2-0.3-0.2-0.2-0.3-0.2-0.3-0.3-0.2-0.3-0.2-0.2-0.3-1.5-0.3-1.5-0.2v-2l1 0.2 1 0.3 13 0.5q13 0.5 15.5 1.5t3-1.3q0.5-2.2 2.3-2.7 1.7-0.5 2-1.5 0.2-1 1.2-0.8z" fill="#d6966a" stroke="#d6966a"/>
  <path d="m443 85.2l1-0.2 1 0.2q1 0.3 0 0.6-1 0.2-1.5 2l-0.5 1.7 2.8-0.7q2.7-0.8 3.2 3.7t1 3.5 0.8 1q0.2 2-0.6 2.5-0.7 0.5-1 1.3-0.2 0.7 1 1.4 1.3 0.8 0.6 2-0.8 1.3 3.4 2 4.3 0.8 4.3 2.3t0.3 1.3l0.2-0.3 0.8-0.7q0.7-0.8 1-2.3l0.2-1.5 1-0.2 1-0.3 1-0.3 1-0.2-0.2 1-0.3 1-0.3 0.2-0.2 0.3-0.2 0.3-0.3 0.2-0.3 0.2-0.2 0.3 1 0.5 1 0.5 0.2 0.3 0.3 0.2 0.3 1.5q0.2 1.5-0.8 1.5t-0.8 2.5q0.3 2.5 3 5.7 2.8 3.3 7.8 3.8l5 0.5v0.5l-1 0.2-1 0.3-0.2 0.3-0.3 0.2-0.3 0.2-0.2 0.3-8 1q-8 1-10.5 0.7-2.5-0.2-3 1.6-0.5 1.7-2 2-1.5 0.2-0.7 4.2 0.7 4-0.3 5t-0.5 7.5 1.5 8 0 3-1.3 4q-0.2 2.5-1.2 2.5t-2 2.8q-1 2.7-2.2 4.4-1.3 1.8-0.6 4 0.8 2.3 5.3 5.3t9 4.5 5.5 2l1 0.5 0.2 0.3 0.3 0.2 0.3 0.2 0.2 0.3 0.5 0.3 0.5 0.2 0.2 1.5 0.3 1.5 0.3 0.2 0.2 0.3 1 0.5 1 0.5h-5l-2.5-0.5q-2.5-0.5-3-0.5t-11.5 1-14.5-1l-3.5-2-1.5 0.3-1.5 0.2-0.2 1.5-0.3 1.5h-0.5l-0.2-0.5-0.3-0.5-0.5-1-0.5-1-0.3 0.2-0.2 0.3-1 0.5-1 0.5-0.2 0.3-0.3 0.2-0.5 3q-0.5 3 0 4.5l0.5 1.5 0.5 1 0.5 1 0.3 0.2 0.2 0.3-1 0.3-1 0.2-0.2-1-0.3-1-0.5-1-0.5-1-0.5-1-0.5-1-0.3-1.5q-0.2-1.5-1.7-1.5t-1.5-1 1.5-1 1.3-5q-0.3-5-2-5.5-1.8-0.5-2.6-3-0.7-2.5-3-3.5-2.2-1-1-4.5 1.3-3.5 1.8-3t0.8-3q0.2-3.5-0.8-3.7-1-0.3-1.2-2.6-0.3-2.2-1.6-2.7-1.2-0.5-1-5l0.3-4.5-0.3-0.2-0.2-0.3 0.2-0.3 0.3-0.2 0.5-1 0.5-1 0.3-0.2 0.2-0.3 1.2-1.3q1.3-1.2 1.6-3.7 0.2-2.5-1.3-2.5t-1.5-4.5-1.2-5q-1.3-0.5-0.8-10.5t1.8-10.5q1.2-0.5 2.7-2.7 1.5-2.3 2.5-2.6 1-0.2 3.5-3 2.5-2.7 4.5-2.4 2 0.2 2 1.2t1 1 1.5-2.5 1.5-2.5 2.5-3 3.5-3.8q2-0.7 4-1.7t3-1.3zm-1.8 2.6l-0.2-0.3 0.2-0.3q0.3-0.2 0.3 0.3v0.5l-0.3-0.2zm5 5q-0.2-0.3 0-0.6 0.3-0.2 0.3 0.3t-0.3 0.3zm-32.4 55.7l0.2 1.5h-1q-1 0-0.2-1.5 0.7-1.5 1 0z" fill="#9e6a4b" stroke="#9e6a4b"/>
 </g>
</svg>
