<?xml version="1.0" standalone="no"?>
<!DOCTYPE svg PUBLIC "-//W3C//DTD SVG 20010904//EN"
 "http://www.w3.org/TR/2001/REC-SVG-20010904/DTD/svg10.dtd">
<svg version="1.0" xmlns="http://www.w3.org/2000/svg"
 width="1280.000000pt" height="1190.000000pt" viewBox="0 0 1280.000000 1190.000000"
 preserveAspectRatio="xMidYMid meet">
<g transform="translate(0.000000,1190.000000) scale(0.100000,-0.100000)"
fill="#000000" stroke="none">
<path d="M9353 11882 c-103 -37 -131 -65 -238 -242 -55 -90 -632 -1155 -1055
-1945 -106 -198 -234 -432 -285 -520 -91 -159 -191 -342 -443 -815 -72 -135
-223 -411 -337 -615 -203 -365 -361 -668 -425 -815 -18 -41 -34 -77 -36 -78
-5 -7 -71 18 -379 138 -449 176 -633 238 -824 275 -82 17 -84 16 -155 -6 -76
-24 -111 -53 -140 -113 -34 -73 -9 -147 73 -209 25 -19 120 -76 211 -127 174
-97 289 -170 310 -195 11 -13 7 -30 -20 -99 -17 -46 -30 -92 -28 -102 5 -28
98 -79 207 -115 142 -47 190 -69 185 -84 -11 -27 20 -58 90 -91 75 -34 107
-60 90 -72 -6 -4 -30 -21 -55 -38 -24 -18 -107 -67 -184 -109 -77 -43 -158
-90 -181 -106 l-41 -28 -59 36 c-62 38 -540 296 -682 369 -143 73 -251 78
-411 18 -89 -34 -594 -295 -821 -424 -190 -109 -411 -244 -697 -427 -89 -57
-166 -103 -170 -103 -5 0 -130 58 -279 130 -297 142 -293 139 -294 234 0 47
-3 51 -68 115 -52 50 -101 84 -211 144 -78 43 -193 112 -254 152 -140 92 -199
116 -303 122 l-80 6 -25 45 c-48 91 -142 167 -339 276 -58 32 -154 91 -215
131 -173 114 -186 120 -285 120 -77 0 -91 -4 -150 -34 -42 -22 -92 -61 -140
-110 -62 -62 -85 -95 -127 -181 -78 -158 -100 -292 -68 -414 23 -87 39 -108
118 -149 40 -20 169 -94 287 -163 118 -70 266 -153 329 -185 99 -51 120 -58
153 -53 35 6 38 4 48 -22 17 -45 57 -81 147 -135 46 -27 127 -76 180 -111 153
-96 312 -186 373 -210 41 -16 78 -22 145 -22 115 -1 173 24 272 118 39 36 74
66 78 66 7 0 272 -119 358 -161 46 -22 47 -24 47 -68 1 -96 56 -164 196 -241
101 -56 491 -291 568 -343 l59 -40 -6 -101 c-6 -96 -27 -193 -60 -281 -26 -69
-656 -1335 -664 -1335 -9 0 -157 250 -361 609 -111 196 -132 227 -165 244 -48
25 -99 16 -139 -23 -45 -46 -39 -81 32 -175 35 -46 340 -567 340 -580 0 -8
-88 41 -203 113 l-88 54 -84 -4 c-69 -4 -95 -10 -151 -38 -254 -125 -396 -508
-284 -768 18 -43 28 -51 103 -89 45 -23 154 -89 242 -146 258 -167 413 -246
533 -272 25 -5 42 -19 65 -53 18 -26 43 -57 57 -69 36 -32 303 -188 525 -307
l190 -101 85 0 c131 0 175 24 329 183 l125 128 235 -136 c130 -75 615 -356
1078 -623 l842 -487 166 93 165 93 6 140 c12 250 11 270 -11 299 -23 31 -103
81 -340 213 -190 105 -340 202 -337 217 2 14 3262 2011 4946 3030 l560 338 35
-20 c331 -186 946 -545 1046 -611 134 -88 217 -132 248 -132 24 0 71 25 132
70 27 21 79 52 115 70 36 18 77 41 93 52 l27 19 0 217 0 217 -377 215 c-207
118 -452 261 -543 317 l-167 103 5 902 4 903 -41 64 c-38 58 -42 68 -39 120
l3 56 -55 5 c-66 6 -80 14 -80 43 0 34 27 65 79 92 57 28 61 36 61 120 0 69
-4 76 -66 93 -53 15 -68 33 -59 71 8 36 28 54 83 76 l43 17 -3 86 -3 85 -53
15 c-93 26 -91 75 4 117 l54 24 0 90 0 91 91 46 c50 25 171 91 268 146 97 55
211 118 254 139 l77 39 0 55 0 55 -52 33 c-268 171 -292 180 -362 132 -20 -14
-52 -36 -72 -50 -20 -14 -47 -25 -60 -25 -24 0 -24 1 -24 115 0 97 -3 117 -17
131 -41 35 -224 162 -252 174 -48 20 -91 7 -193 -58 -51 -33 -131 -78 -178
-102 -100 -50 -276 -147 -725 -398 -317 -178 -730 -402 -740 -402 -14 0 -55
79 -55 107 0 37 54 143 245 483 165 293 486 889 765 1420 117 223 248 464 291
537 96 162 119 226 119 330 l0 78 -103 100 c-149 145 -451 371 -652 488 -96
55 -331 169 -467 225 -203 85 -356 110 -455 74z m1721 -4258 c3 -26 6 -209 6
-408 l0 -361 -29 -16 c-25 -15 -29 -23 -35 -90 -16 -171 -23 -522 -18 -941 5
-414 4 -448 -12 -448 -32 0 -143 58 -406 212 -146 85 -279 162 -297 172 -54
27 -91 21 -183 -34 -47 -28 -111 -63 -142 -78 -75 -35 -81 -54 -80 -233 1 -76
-3 -162 -8 -191 -10 -52 -10 -53 22 -79 17 -15 117 -75 221 -134 171 -98 267
-166 267 -191 0 -5 -102 -70 -227 -144 -695 -410 -1460 -873 -2973 -1798
-1357 -830 -1930 -1175 -1939 -1167 -11 12 -13 985 -2 1220 10 230 10 230 -12
253 -12 13 -34 30 -49 38 l-28 15 0 247 0 248 353 201 c193 110 443 251 554
312 l201 113 69 -41 c37 -23 90 -48 117 -56 51 -16 150 -20 205 -9 l31 6 2
172 3 171 90 51 c49 28 107 66 128 84 90 76 101 199 25 286 -18 20 -90 74
-161 121 l-130 85 74 47 c96 61 295 172 539 301 107 57 229 121 271 144 l76
40 94 -28 c52 -16 129 -31 171 -34 l77 -5 36 36 c19 19 35 44 35 54 0 31 9 33
53 12 68 -30 142 -26 207 14 74 44 115 101 228 322 l97 190 120 64 c66 35 289
157 495 271 206 114 425 234 487 266 l112 59 30 -32 c34 -37 32 -37 84 -22 69
19 72 14 72 -113 0 -98 3 -119 23 -159 25 -51 65 -76 105 -65 14 3 36 26 55
56 46 73 86 84 61 17 -10 -29 -10 -40 3 -68 9 -19 19 -45 23 -59 4 -14 14 -33
23 -42 30 -35 59 -22 149 66 l87 83 -109 179 c-155 256 -208 352 -202 368 8
19 180 125 417 257 113 62 255 141 315 175 61 35 113 63 116 63 4 1 9 -20 13
-45z m-6714 -3929 c91 -57 200 -120 243 -141 105 -52 113 -89 42 -174 -27 -32
-35 -51 -35 -80 0 -33 -5 -41 -34 -59 l-33 -21 -2 -442 c-1 -244 -3 -573 -5
-733 l-3 -290 -29 -14 c-16 -8 -32 -19 -36 -25 -9 -13 -22 -6 -378 204 -146
86 -283 166 -305 179 l-40 22 -105 -57 c-58 -31 -120 -68 -138 -81 l-34 -25
-41 18 c-23 10 -88 45 -144 77 l-102 59 211 422 c288 576 445 906 616 1299
l21 48 83 -42 c46 -23 157 -88 248 -144z"/>
</g>
</svg>
