<?xml version="1.0" encoding="UTF-8"?>
<svg version="1.0" viewBox="0 0 374.2 279.69" xmlns="http://www.w3.org/2000/svg">
 <path d="m139.03 255.17c-10.835 9.919-10.928 21.121 4.794 23.049 12.669 1.554 16.329 0.35501 17.395-11.147 0.37901-4.102-2.46-11.701 0.921-19.86 4.518-10.9 4.395-23.204 1.66-29.132-4.163-9.027-14.146-15.695-11.758-25.611 1.482-6.154 12.588-8.866 16.556-15.57 6.71-11.338 7.809-25.21 15.141-21.819 4.745 2.195 7.766 14.68 15.466 21.548 8.917 7.952 22.207 10.543 21.364 15.585-2.63 15.728-13.443 9.221-17.487 26.353-1.491 6.319 4.754 28.167 2.475 46.047-1.106 8.672 4.337 16.137 14.805 14.294 10.356-1.823 14.002-1.154 15.368-9.021 1.157-6.666-26.393-3.123-12.136-31.068 7.029-13.777 13.894-33.943 18.359-46.335 5.584-15.498-11.028-34.351-23.917-41.534-15.45-8.611-15.611-9.582-9.54-32.49 2.941-11.096 8.863-33.309 20.308-20.976 8.015 8.637 17.409 21.201 30.691 13.628 12.94-7.378 22.568-18.915 35.334-26.225 9.433-5.402 20.789-25.153 8.806-31.858-13.162-7.3644-22.242 11.165-30.2 19.879-7.28 7.973-25.197 21.392-30.113 7.891-4.612-12.669-15.794-18.976-27.276-20.119-10.191-1.015-20.154-8.9864-10.044-18.865 10.184-9.9518 8.493-33.268-6.918-39.401-13.734-5.466-32.628 0.9789-36.257 16.934-3.257 14.322 11.122 24.084 13.067 35.325 2.597 15.004-22.6 4.4234-31.68 10.173-9.257 5.861-18.146 7.841-28.299 13.143-16.739 8.742-22.453-9.254-31.745-17.326-9.1561-7.9549-31.915 10.582-18.33 17.156 12.998 6.289 26.028 12.576 35.185 23.805 8.695 10.662 25.059 11.646 31.743-1.561 7.003-13.836 28.078-6.035 28.157 8.457 0.057999 10.553 8.702 23.372-0.054001 30.684-8.617 7.196-19.096 12.322-25.365 20.819-9.346 12.665-11.309 32.663-2.755 43.979 4.143 5.481 4.334 16.707 6.163 26.95 1.826 10.228 5.299 19.473 0.116 24.218z" fill="#2b2b28"/>
 <g fill="#2b2b28">
  <path d="m43.574 77.723l129.71-15.118s67.822 0.602 96.508 4.774c17.931 2.608 58.677 14.322 58.677 14.322l3.86-6.365s-46.538-14.684-67.17-17.505c-28-3.8296-94.191-1.5916-94.191-1.5916l-129.71 13.527 2.3162 7.957z"/>
  <g transform="matrix(.98822 -.15305 .15305 .98822 -55.81 -83.48)">
   <rect x="66.256" y="135.05" width="9.5427" height="78.728"/>
   <rect x="49.556" y="141.01" width="9.5427" height="66.799"/>
   <rect x="33.651" y="147.37" width="9.5427" height="54.076"/>
  </g>
  <g transform="matrix(-.97678 -.21423 -.21423 .97678 457.39 -75.168)">
   <rect x="84.692" y="138.49" width="9.5427" height="78.728"/>
   <rect x="67.992" y="144.46" width="9.5427" height="66.799"/>
   <rect x="52.088" y="150.82" width="9.5427" height="54.076"/>
  </g>
 </g>
</svg>
